<?xml version="1.0" encoding="utf-8"?>
<!-- Generator: Adobe Illustrator 22.0.0, SVG Export Plug-In . SVG Version: 6.00 Build 0)  -->
<svg version="1.1" id="Layer_1" xmlns="http://www.w3.org/2000/svg" xmlns:xlink="http://www.w3.org/1999/xlink" x="0px" y="0px"
	 viewBox="0 0 350 150" style="enable-background:new 0 0 350 150;" xml:space="preserve">
<style type="text/css">
	.st0{fill:#231F20;}
	.st1{fill:#FF0322;}
	.st2{fill:#353434;}
	.st3{fill:#FFFFFF;}
	.st4{fill:#383737;}
	.st5{font-family:'FranklinGothic-Medium';}
	.st6{font-size:19.5907px;}
</style>
<g>
	<g>
		<path class="st0" d="M17.8,102.7h5.2c6.2,0,7.8,1.1,6.2,3l-0.5,0.6c-1.5,1.9-3.8,2.4-7,2.6c2.6,0.2,5.3,1,3.7,3.1l-0.8,1.1
			c-1.4,1.8-2.7,3.1-11.4,3.1h-6L17.8,102.7z M8.5,116h4.6c6.7,0,8.5-0.7,10.2-2.9l0.8-1c1.7-2.2-0.9-3-6.2-3h-4L8.5,116z
			 M18.3,108.8c5.1,0,7.5-0.3,9.2-2.4l0.6-0.8c1.4-1.7,0.5-2.6-5.2-2.6h-4l-4.6,5.7H18.3z"/>
		<path class="st0" d="M44.4,113.9c-0.8,1-1.5,2-1.7,2.4h-1.1c0-0.2,0.5-0.9,1-1.4c-1.5,1-3.8,1.6-7.3,1.6c-3.1,0-6.5-0.4-4.9-2.4
			l6.3-8h1.2l-6.2,7.9c-1.1,1.4-0.2,2.2,3.7,2.2c3.7,0,6.6-0.7,9-3.6l5.1-6.4h1.2L44.4,113.9z"/>
		<path class="st0" d="M56.7,106.1c-0.3,4.6-0.5,8.3-0.7,9.5h0.1c2.1-1.5,6.8-4.6,14.1-9.5h1.3l-15.6,10.4c-3.7,2.5-5.2,3.3-9.6,3.3
			c-0.6,0-1.7,0-2.4-0.1l0.4-0.3c0.6,0,1.5,0.1,2.1,0.1c3.3,0,4.6-0.7,8.4-3.2l0.6-10.2H56.7z"/>
		<path class="st0" d="M96.8,109.2H86.3L81,116h12.1l-0.5,0.3h-13l10.7-13.5h12.5l-0.2,0.3H91.3l-4.7,5.9h10.5L96.8,109.2z"/>
		<path class="st0" d="M112.1,114.4c-0.2,0.3-1.1,1.3-1.2,1.8h-1.1c0.1-0.2,0.4-0.8,1-1.5c-1.8,1.1-4,1.6-7.7,1.6
			c-5.1,0-6-1.3-4.7-2.9c1.7-2.2,6.5-2.6,14.3-3c0.5,0,0.9-0.1,1.4-0.1l1.7-2.1c0.8-0.9,1.1-2.2-4.3-2.2c-3.7,0-5.2,0.8-6.1,1.9
			l-0.3,0.3h-1.2l0.4-0.4c0.7-0.8,2-2.1,7.5-2.1c5.3,0,6.4,1.1,5.3,2.4L112.1,114.4z M113.8,110.8c-0.4,0-0.8,0-1.1,0.1
			c-7.9,0.4-11.8,0.9-13.1,2.7c-1.1,1.6-0.2,2.5,3.7,2.5c5.1,0,7.5-1.3,9-3.3L113.8,110.8z"/>
		<path class="st0" d="M119.6,113.7l-0.2,0.3c-0.8,1,0.4,2.2,4.7,2.2c3.7,0,5.8-0.7,6.6-1.9c0.9-1.3,0-2.2-3.3-3.1
			c-4-1.2-5.6-2-4.6-3.3c0.8-1,2.7-1.9,6.9-1.9c5.5,0,6.2,1.2,5.6,2.3l-0.2,0.3H134l0.2-0.2c0.6-0.9,0.2-2-4.6-2
			c-2.9,0-4.8,0.5-5.6,1.6c-0.8,1.1,0.5,1.9,4,2.9c3.3,1,5,2,3.8,3.5c-1.1,1.3-3.3,2.1-7.6,2.1c-6.4,0-6.8-1.6-6.1-2.5l0.2-0.3
			H119.6z"/>
		<path class="st0" d="M142.4,106.1c-0.3,4.6-0.5,8.3-0.7,9.5h0.1c2.1-1.5,6.8-4.6,14.1-9.5h1.3l-15.6,10.4
			c-3.7,2.5-5.2,3.3-9.6,3.3c-0.6,0-1.7,0-2.4-0.1l0.4-0.3c0.6,0,1.5,0.1,2.1,0.1c3.3,0,4.6-0.7,8.4-3.2l0.6-10.2H142.4z"/>
		<path class="st0" d="M146.6,118.1c3-1.1,5.3-2.3,6.3-3.5h1.1c-1.1,1.5-4.6,3-6.3,3.5H146.6z"/>
		<path class="st0" d="M179.8,102.7h5.2c6.2,0,7.8,1.1,6.2,3l-0.5,0.6c-1.5,1.9-3.8,2.4-7,2.6c2.6,0.2,5.3,1,3.7,3.1l-0.8,1.1
			c-1.4,1.8-2.7,3.1-11.4,3.1h-6L179.8,102.7z M170.5,116h4.6c6.7,0,8.5-0.7,10.2-2.9l0.8-1c1.7-2.2-0.9-3-6.2-3h-4L170.5,116z
			 M180.3,108.8c5.1,0,7.5-0.3,9.2-2.4l0.6-0.8c1.4-1.7,0.5-2.6-5.2-2.6h-4l-4.6,5.7H180.3z"/>
		<path class="st0" d="M206.4,113.9c-0.8,1-1.5,2-1.7,2.4h-1.1c0-0.2,0.5-0.9,1-1.4c-1.5,1-3.8,1.6-7.3,1.6c-3.1,0-6.5-0.4-4.9-2.4
			l6.3-8h1.2l-6.2,7.9c-1.1,1.4-0.2,2.2,3.7,2.2c3.7,0,6.6-0.7,9-3.6l5.1-6.4h1.2L206.4,113.9z"/>
		<path class="st0" d="M220.5,106.1h1.2l-8.1,10.2h-1.2L220.5,106.1z M223.6,102.2h1.2l-1.4,1.7h-1.2L223.6,102.2z"/>
		<path class="st0" d="M222.1,116.3l11.2-14.1h1.2l-11.2,14.1H222.1z"/>
		<path class="st0" d="M256.2,102.2l-9.4,11.8c-0.5,0.7-1.1,1.5-1.6,2.2H244c0.1-0.2,0.5-0.9,0.9-1.3c-1.3,0.8-3,1.5-7.1,1.5
			c-4.9,0-6.5-1-4.8-3.2l3.4-4.3c1.7-2.1,4-3,8.7-3c4.5,0,5.7,0.9,5.7,1.6l4.2-5.3H256.2z M237.6,109l-3.3,4.2c-1.4,1.7-1.4,3,3.6,3
			c5.6,0,7.4-1.7,9.6-4.5l1.3-1.6c1.9-2.4,1.7-3.8-3.8-3.8C240.9,106.2,239,107.3,237.6,109z"/>
		<path class="st0" d="M281.1,109.2h-10.5l-5.3,6.7h12.1l-0.5,0.3h-13l10.7-13.5H287l-0.2,0.3h-11.3l-4.7,5.9h10.5L281.1,109.2z"/>
		<path class="st0" d="M296.3,114.4c-0.2,0.3-1.1,1.3-1.2,1.8H294c0.1-0.2,0.4-0.8,1-1.5c-1.8,1.1-4,1.6-7.7,1.6
			c-5.1,0-6-1.3-4.7-2.9c1.7-2.2,6.5-2.6,14.3-3c0.5,0,0.9-0.1,1.4-0.1l1.7-2.1c0.8-0.9,1.1-2.2-4.3-2.2c-3.7,0-5.2,0.8-6.1,1.9
			l-0.3,0.3H288l0.4-0.4c0.7-0.8,2-2.1,7.5-2.1c5.3,0,6.4,1.1,5.3,2.4L296.3,114.4z M298,110.8c-0.4,0-0.8,0-1.1,0.1
			c-7.9,0.4-11.8,0.9-13.1,2.7c-1.1,1.6-0.2,2.5,3.7,2.5c5.1,0,7.5-1.3,9-3.3L298,110.8z"/>
		<path class="st0" d="M303.8,113.7l-0.2,0.3c-0.8,1,0.4,2.2,4.7,2.2c3.7,0,5.8-0.7,6.6-1.9c0.9-1.3,0-2.2-3.3-3.1
			c-4-1.2-5.6-2-4.6-3.3c0.8-1,2.7-1.9,6.9-1.9c5.5,0,6.2,1.2,5.6,2.3l-0.2,0.3h-1.2l0.2-0.2c0.6-0.9,0.2-2-4.6-2
			c-2.9,0-4.8,0.5-5.6,1.6c-0.8,1.1,0.5,1.9,4,2.9c3.3,1,5,2,3.8,3.5c-1.1,1.3-3.3,2.1-7.6,2.1c-6.4,0-6.8-1.6-6.1-2.5l0.2-0.3
			H303.8z"/>
		<path class="st0" d="M326.6,106.1c-0.3,4.6-0.5,8.3-0.7,9.5h0.1c2.1-1.5,6.8-4.6,14.1-9.5h1.3l-15.6,10.4
			c-3.7,2.5-5.2,3.3-9.6,3.3c-0.6,0-1.7,0-2.4-0.1l0.4-0.3c0.6,0,1.5,0.1,2.1,0.1c3.3,0,4.6-0.7,8.4-3.2l0.6-10.2H326.6z"/>
	</g>
	<ellipse class="st1" cx="197.4" cy="66.8" rx="11.2" ry="11.3"/>
	<ellipse class="st1" cx="138.4" cy="66.8" rx="11.2" ry="11.3"/>
	<path class="st2" d="M75.1,24.2v10.6H64.5V24.2H75.1z M64.5,93.4V40.2h10.6v53.2H64.5z"/>
	<path class="st2" d="M96.3,24.2v16h10.6v10.6H96.3v21.3c0,7.1,3.5,10.6,10.6,10.6v10.6c-14.1,0-21.2-7.1-21.2-21.3V50.8h-5.3V40.2
		h5.3v-16H96.3z"/>
	<path class="st2" d="M329.4,40.2v12.3l0,0v8.2l0,0V77c0,5.5,3.5,8.2,10.6,8.2v8.2c-14.1,0-21.2-5.5-21.2-16.4V60.6l0,0v-8.2l0,0
		V40.2H329.4z"/>
	<path class="st2" d="M138.7,93.4c-7.3,0-13.6-2.6-18.7-7.8c-5.2-5.2-7.8-11.5-7.8-18.8c0-7.3,2.6-13.6,7.8-18.8
		c5.2-5.2,11.4-7.8,18.7-7.8s13.6,2.6,18.7,7.8c5.2,5.2,7.8,11.5,7.8,18.8c0,7.3-2.6,13.6-7.8,18.8C152.2,90.8,146,93.4,138.7,93.4z
		 M138.7,50.8c-4.4,0-8.1,1.6-11.2,4.7c-3.1,3.1-4.7,6.9-4.7,11.3c0,4.4,1.6,8.2,4.7,11.3c3.1,3.1,6.9,4.7,11.2,4.7
		c4.4,0,8.1-1.6,11.2-4.7c3.1-3.1,4.7-6.9,4.7-11.3c0-4.4-1.6-8.2-4.7-11.3C146.8,52.4,143,50.8,138.7,50.8z M165.1,40.2v53.2h-10.6
		V40.2H165.1z"/>
	<path class="st2" d="M181,93.4h-10.6V24.2H181v21.2c4.6-3.5,9.9-5.3,15.9-5.3c7.3,0,13.6,2.6,18.7,7.8c5.2,5.2,7.8,11.5,7.8,18.8
		c0,7.3-2.6,13.6-7.8,18.8c-5.2,5.2-11.4,7.8-18.7,7.8c-6,0-11.3-1.8-15.9-5.3V93.4z M185.7,55.5c-3.1,3.1-4.7,6.9-4.7,11.3
		c0,4.4,1.6,8.2,4.7,11.3c3.1,3.1,6.9,4.7,11.2,4.7c4.4,0,8.1-1.6,11.2-4.7c3.1-3.1,4.7-6.9,4.7-11.3c0-4.4-1.6-8.2-4.7-11.3
		c-3.1-3.1-6.9-4.7-11.2-4.7C192.6,50.8,188.8,52.4,185.7,55.5z"/>
	<path class="st2" d="M255.2,93.4c-7.3,0-13.6-2.6-18.7-7.8c-5.2-5.2-7.8-11.5-7.8-18.8c0-7.3,2.6-13.6,7.8-18.8
		c5.2-5.2,11.4-7.8,18.7-7.8c7.3,0,13.6,2.6,18.7,7.8c5.2,5.2,7.8,11.5,7.8,18.8c0,7.3-2.6,13.6-7.8,18.8
		C268.8,90.8,262.5,93.4,255.2,93.4z M255.2,50.8c-4.4,0-8.1,1.6-11.2,4.7c-3.1,3.1-4.7,6.9-4.7,11.3c0,4.4,1.6,8.2,4.7,11.3
		c3.1,3.1,6.9,4.7,11.2,4.7c4.4,0,8.1-1.6,11.2-4.7c3.1-3.1,4.7-6.9,4.7-11.3c0-4.4-1.6-8.2-4.7-11.3
		C263.4,52.4,259.6,50.8,255.2,50.8z M281.7,40.2v53.2h-10.6V40.2H281.7z"/>
	<path class="st2" d="M287,93.4V40.2h10.6v5.3c0-3.5,5.3-5.3,15.9-5.3v10.6c-10.6,0-15.9,3.5-15.9,10.6v31.9H287z"/>
	<path class="st2" d="M329.4,24.2v10.6h-10.6V24.2H329.4z"/>
	<path class="st2" d="M154.5,93.4c0,0,10.5,2,12.1,3.8c0,0-1.5-1.8-1.5-7.3"/>
	<path class="st2" d="M271.1,93.4c0,0,10.4,2,12,3.8c0,0-1.5-1.8-1.5-7.3"/>
	<path class="st1" d="M36.6,90.2L11.3,47.3h21l11.6,21l16.4-32.1v-0.1H31.5C15.7,36.1,2.8,49,2.8,64.9s12.9,28.8,28.8,28.8
		c1.4,0,2.8-0.1,4.1-0.3h24.7V43.9C54.2,56.3,36.6,90.2,36.6,90.2z"/>
	<path class="st3" d="M32.3,47.3h-21l25.3,42.9c0,0,17.5-33.9,23.7-46.4v-7.6L43.9,68.4L32.3,47.3z"/>
	<text transform="matrix(0 -1.0764 1 0 346.6292 87.4161)" class="st4 st5 st6">.com</text>
</g>
</svg>
