<svg xmlns="http://www.w3.org/2000/svg" viewBox="0 0 344.064 344.064"><path fill="#aaaaaa" d="M338.944 83.968h-69.12v-40.96c0-3.072-2.048-5.12-5.12-5.12H5.12c-3.072 0-5.12 2.048-5.12 5.12V245.76c0 33.28 27.136 60.416 60.416 60.416h243.712c1.024 0 1.536 0 2.048-.512 21.504-3.072 37.888-21.504 37.888-44.032V89.088c0-2.56-2.56-5.12-5.12-5.12zM59.904 295.936c-27.648 0-49.664-22.528-49.664-50.176V48.128h249.344v203.264c0 22.016 6.656 35.84 16.384 44.544H59.904zm273.92-34.304c0 17.92-14.336 32.768-32.256 33.792-19.968-1.024-31.744-17.408-31.744-44.032V94.208h64v167.424z"/><path fill="#aaaaaa" d="M222.72 99.328H45.056c-3.072 0-5.12 2.048-5.12 5.12s2.048 5.12 5.12 5.12H222.72c3.072 0 5.12-2.048 5.12-5.12 0-2.56-2.56-5.12-5.12-5.12zM222.72 143.872H45.056c-3.072 0-5.12 2.048-5.12 5.12s2.048 5.12 5.12 5.12H222.72c3.072 0 5.12-2.048 5.12-5.12s-2.56-5.12-5.12-5.12zM222.72 188.416H45.056c-3.072 0-5.12 2.048-5.12 5.12s2.048 5.12 5.12 5.12H222.72c3.072 0 5.12-2.048 5.12-5.12s-2.56-5.12-5.12-5.12zM222.72 232.448H45.056c-3.072 0-5.12 2.048-5.12 5.12s2.048 5.12 5.12 5.12H222.72c3.072 0 5.12-2.048 5.12-5.12 0-2.56-2.56-5.12-5.12-5.12z"/></svg>