<?xml version="1.0" encoding="iso-8859-1"?>
<!-- Generator: Adobe Illustrator 19.0.0, SVG Export Plug-In . SVG Version: 6.00 Build 0)  -->
<svg xmlns="http://www.w3.org/2000/svg" xmlns:xlink="http://www.w3.org/1999/xlink" version="1.1" id="Capa_1" x="0px" y="0px" viewBox="0 0 379.374 379.374" style="enable-background:new 0 0 379.374 379.374;" xml:space="preserve">
<g>
	<g>
		<path d="M235.503,190.417c-5.12-8.704-13.824-7.168-20.992-5.632l-8.704-14.336c4.608-2.048,7.168,0,9.216-1.536    c1.536-1.024,2.048-2.56,1.024-4.096c-1.536-2.56-7.68-2.048-13.312,0.512l-2.048-3.072c-0.512-1.024-1.536-1.024-2.048-0.512    c-1.024,0.512-1.024,1.536-0.512,2.048l2.048,3.072c-7.68,5.632-8.704,14.336-5.632,19.456c4.608,8.192,12.8,6.656,19.968,5.12    l10.752,18.432c-6.144,3.584-10.24,1.024-12.8,2.56c-1.536,1.024-1.536,2.56-0.512,4.096c1.536,3.072,9.728,2.048,16.384-1.536    l2.048,3.072c0.512,1.024,1.536,1.024,2.048,0.512c1.024-0.512,1.024-1.536,0.512-2.048l-2.048-3.584    C239.086,206.801,239.598,197.586,235.503,190.417z M200.686,182.226c-2.048-3.584-1.024-7.68,2.56-10.24l7.68,13.312    C206.318,185.81,202.734,185.81,200.686,182.226z M227.822,207.826l-9.728-16.896c4.608-1.024,9.216-0.512,11.776,3.584    C232.43,199.122,231.918,204.242,227.822,207.826z"/>
	</g>
</g>
<g>
	<g>
		<path d="M377.326,171.474L311.278,58.321c-4.096-6.656-12.8-9.216-19.456-5.12L59.374,188.37c-3.072,2.048-5.632,5.12-6.656,8.704    c-1.024,3.584-0.512,7.68,1.536,10.752l66.048,113.152c2.56,4.608,7.68,7.168,12.288,7.168c2.56,0,5.12-0.512,7.168-2.048    L372.206,190.93c3.072-2.048,5.632-5.12,6.656-8.704C379.886,178.641,379.374,174.545,377.326,171.474z M366.574,182.226    L134.638,317.394c-2.048,1.024-4.608,0.512-5.632-1.536L62.958,202.706c-0.512-1.024-0.512-2.048-0.512-3.072    c0.512-1.024,1.024-2.048,2.048-2.56L296.942,61.906c0.512,0,1.024,0,2.048,0c1.536,0,2.56,0.512,3.584,2.048l66.048,113.152    C369.134,178.641,368.622,181.201,366.574,182.226z"/>
	</g>
</g>
<g>
	<g>
		<path d="M344.558,154.066l-34.816-58.368c-0.512-1.024-2.048-2.048-3.072-2.56c-1.536-0.512-2.56,0-4.096,0.512    c-3.584,2.048-7.68,2.56-11.776,1.536c-4.096-1.024-7.168-3.584-9.216-7.168c-1.536-2.56-4.608-3.072-7.168-2.048L96.238,190.417    c-2.56,1.536-3.072,4.608-2.048,7.168c4.096,7.168,1.536,16.896-5.632,20.992c-1.024,0.512-2.048,2.048-2.56,3.072    c-0.512,1.536,0,2.56,0.512,4.096l34.304,58.88c1.536,2.56,4.608,3.072,7.168,2.048c7.168-4.096,16.896-1.536,20.992,5.632    c1.024,1.536,2.56,2.56,4.608,2.56c1.024,0,1.536,0,2.56-0.512l178.688-104.96c2.56-1.536,3.072-4.608,2.048-7.168    c-4.096-7.168-1.536-16.896,5.632-20.992C345.07,159.698,345.582,156.626,344.558,154.066z M325.614,183.25l-170.496,98.816    c-5.12-5.632-11.776-8.704-18.944-8.704c-2.56,0-5.632,0.512-8.192,1.536l-29.696-51.2c7.68-6.656,10.24-17.408,7.168-27.136    L275.95,97.745c3.072,3.584,7.68,6.144,12.8,7.68c5.12,1.536,10.24,1.024,14.848-0.512l29.696,51.2    C325.614,162.77,322.542,173.521,325.614,183.25z"/>
	</g>
</g>
<g>
	<g>
		<path d="M70.638,261.074c-1.536-2.56-4.608-3.072-7.168-2.048L30.702,277.97c-3.072,1.536-3.584,4.608-2.048,7.168    c1.024,1.536,2.56,2.56,4.608,2.56c1.024,0,1.536,0,2.56-0.512l32.768-18.944C71.15,266.706,71.662,263.634,70.638,261.074z"/>
	</g>
</g>
<g>
	<g>
		<path d="M80.878,279.506c-1.536-2.56-4.608-3.072-7.168-2.048l-47.616,27.648c-2.56,1.536-3.072,4.608-2.048,7.168    c1.024,1.536,2.56,2.56,4.608,2.56c1.024,0,1.536,0,2.56-0.512l47.616-27.648C81.39,285.138,81.902,282.066,80.878,279.506z"/>
	</g>
</g>
<g>
	<g>
		<path d="M60.91,245.202c-1.536-2.048-4.608-3.072-7.168-1.536l-22.528,12.8c-2.56,1.536-3.072,4.608-2.048,7.168    c1.024,1.536,2.56,2.56,4.608,2.56c1.024,0,1.536,0,2.56-0.512l22.528-13.312C61.422,250.834,61.934,247.762,60.91,245.202z"/>
	</g>
</g>
<g>
	<g>
		<path d="M24.558,266.194c-1.536-2.56-4.608-3.072-7.168-2.048l-7.68,4.096c-2.56,1.536-3.072,4.608-2.048,7.168    c1.024,1.536,2.56,2.56,4.608,2.56c1.024,0,1.536,0,2.56-0.512l7.68-4.096C25.07,271.826,26.094,268.754,24.558,266.194z"/>
	</g>
</g>
<g>
	<g>
		<path d="M17.39,316.37c-1.536-2.56-4.608-3.584-7.168-2.048l-7.68,4.096c-2.56,1.536-3.072,4.608-2.048,7.168    c1.024,1.536,2.56,2.56,4.608,2.56c1.024,0,1.536,0,2.56-0.512l7.68-4.096C17.902,322.002,18.414,318.93,17.39,316.37z"/>
	</g>
</g>
<g>
	<g>
		<path d="M70.126,309.714c-1.536-3.072-4.608-3.584-7.168-2.048l-15.36,8.704c-2.56,1.536-3.072,4.608-2.048,7.168    c1.024,1.536,2.56,2.56,4.608,2.56c1.024,0,1.536,0,2.56-0.512l15.36-8.704C70.638,315.346,71.15,312.274,70.126,309.714z"/>
	</g>
</g>
<g>
	<g>
		<path d="M91.118,297.426c-1.536-2.56-4.608-3.584-7.168-2.048l-7.68,4.096c-2.56,1.536-3.072,4.608-2.048,7.168    c1.024,1.536,2.56,2.56,4.608,2.56c1.024,0,1.536,0,2.56-0.512l7.68-4.096C91.63,303.058,92.142,299.986,91.118,297.426z"/>
	</g>
</g>
<g>
</g>
<g>
</g>
<g>
</g>
<g>
</g>
<g>
</g>
<g>
</g>
<g>
</g>
<g>
</g>
<g>
</g>
<g>
</g>
<g>
</g>
<g>
</g>
<g>
</g>
<g>
</g>
<g>
</g>
</svg>
