<svg xmlns="http://www.w3.org/2000/svg" viewBox="0 0 383.104 383.104"><path fill="#aaaaaa" d="M193.318 70.784V57.472c4.096.512 4.608 2.56 7.168 2.56 1.536 0 2.048-1.024 2.048-2.56 0-2.56-4.608-4.608-9.216-5.12V49.28c0-.512-.512-1.024-1.024-1.024-1.024.512-1.024 1.024-1.024 2.048v3.072c-7.168.512-11.264 6.144-11.264 11.264 0 7.68 6.144 9.728 11.264 11.264V92.8c-5.632 0-7.68-3.072-9.728-3.072-1.536 0-2.048 1.024-2.048 2.56 0 2.56 5.632 5.632 11.776 5.632v1.536c0 .512.512 1.024 1.024 1.024 1.024 0 1.024-.512 1.024-1.024v-3.072c7.68-1.024 12.288-6.656 12.288-13.312 0-8.192-6.656-10.24-12.288-12.288zm-2.048-1.024c-3.072-1.024-5.632-3.072-5.632-6.144s2.56-5.632 5.632-6.144V69.76zm2.56 22.528V76.416c3.584 1.536 6.656 3.072 6.656 7.168s-2.56 7.68-6.656 8.704z"/><path fill="#aaaaaa" d="M362.278 126.592L195.366 1.152c-2.048-1.536-4.096-1.536-6.144 0L20.774 126.592c-1.536 1.536-2.56 3.584-2.048 5.632.512 2.048 2.56 3.584 4.608 3.584h26.112v216.576h-17.92c-3.072 0-5.12 2.048-5.12 5.12v20.48c0 3.072 2.048 5.12 5.12 5.12h320c3.072 0 5.12-2.048 5.12-5.12v-20.48c0-3.072-2.048-5.12-5.12-5.12h-17.92V135.808h26.112c2.048 0 4.096-1.536 4.608-3.584.512-2.048 0-4.608-2.048-5.632zM347.43 362.624v10.24H37.67v-10.24h309.76zM60.71 351.872V135.808h12.8v216.064h-12.8zm23.04 0V135.808h12.8v216.064h-12.8zm23.04.512V135.808h171.52v216.576H106.79zm181.76 0V135.808h12.8v216.576h-12.8zm23.04-.512V135.808h12.8v216.064h-12.8zM39.718 125.568L192.806 11.904l153.088 113.664H39.718z"/></svg>