<?xml version="1.0" encoding="iso-8859-1"?>
<!-- Generator: Adobe Illustrator 19.0.0, SVG Export Plug-In . SVG Version: 6.00 Build 0)  -->
<svg xmlns="http://www.w3.org/2000/svg" xmlns:xlink="http://www.w3.org/1999/xlink" version="1.1" id="Capa_1" x="0px" y="0px" viewBox="0 0 357.76 357.76" style="enable-background:new 0 0 357.76 357.76;" xml:space="preserve">
<g>
	<g>
		<path d="M357.376,303.492L231.424,4.484c-1.024-2.56-4.096-3.584-6.656-2.56L123.904,44.42V27.012c0-3.072-2.048-5.12-5.12-5.12    H5.12c-3.072,0-5.12,2.048-5.12,5.12v324.096c0,3.072,2.048,5.12,5.12,5.12h113.152c3.072,0,5.12-2.048,5.12-5.12V67.972    l120.32,283.648c1.024,2.048,2.56,3.072,4.608,3.072c0.512,0,1.536,0,2.048-0.512l104.448-44.032    c1.024-0.512,2.048-1.536,2.56-2.56C357.888,306.564,357.888,305.028,357.376,303.492z M10.24,346.5V32.132h102.912V346.5H10.24z     M251.392,342.916L129.024,53.636l94.72-40.448l122.368,289.28L251.392,342.916z"/>
	</g>
</g>
<g>
	<g>
		<path d="M61.952,260.996c-17.408,0-31.744,14.336-31.744,31.744s14.336,31.744,31.744,31.744    c17.408,0,31.744-14.336,31.744-31.744C93.696,275.332,79.36,260.996,61.952,260.996z M61.952,313.732    c-11.776,0-21.504-9.728-21.504-21.504s9.728-21.504,21.504-21.504s21.504,9.728,21.504,21.504S73.728,313.732,61.952,313.732z"/>
	</g>
</g>
<g>
	<g>
		<path d="M306.688,260.484c-3.072-7.68-9.728-13.824-17.408-16.896c-7.68-3.072-16.384-3.072-24.576,0    c-7.168,3.584-13.312,9.728-16.384,17.408c-3.072,7.68-3.072,16.384,0,24.576c5.12,12.288,16.896,19.456,29.184,19.456    c4.096,0,8.192-1.024,12.288-2.56c7.68-3.072,13.824-9.728,16.896-17.408C309.76,277.38,309.76,268.676,306.688,260.484z     M297.984,281.476c-2.048,5.12-6.144,9.728-11.776,11.776c-10.752,4.608-23.552-0.512-28.16-11.264    c-2.56-5.632-2.56-11.776,0-16.896c2.048-5.12,6.144-9.728,11.776-11.776c2.56-1.024,5.632-1.536,8.192-1.536    s5.632,0.512,8.192,1.536c5.12,2.048,9.728,6.144,11.776,11.776C300.032,270.212,300.032,276.356,297.984,281.476z"/>
	</g>
</g>
<g>
	<g>
		<path d="M80.384,60.804H43.52c-3.072,0-5.12,2.048-5.12,5.12v115.2c0,3.072,2.56,5.12,5.12,5.12h36.864    c3.072,0,5.12-2.048,5.12-5.12v-115.2C85.504,62.852,83.456,60.804,80.384,60.804z M75.264,176.004H48.64V71.044h26.624V176.004z"/>
	</g>
</g>
<g>
	<g>
		<path d="M256,161.156L210.944,55.172c-0.512-1.024-1.536-2.048-2.56-2.56c-1.024-0.512-2.56-0.512-4.096,0l-33.792,14.336    c-1.024,0.512-2.048,1.536-2.56,2.56c-0.512,1.024-0.512,2.56,0,4.096l45.056,105.984c1.024,2.048,2.56,3.072,4.608,3.072    c0.512,0,1.536,0,2.048-0.512l33.792-14.336c1.024-0.512,2.048-1.536,2.56-2.56C256.512,164.228,256.512,162.692,256,161.156z     M220.16,170.884L179.2,74.116l24.576-10.24l40.96,96.768L220.16,170.884z"/>
	</g>
</g>
<g>
</g>
<g>
</g>
<g>
</g>
<g>
</g>
<g>
</g>
<g>
</g>
<g>
</g>
<g>
</g>
<g>
</g>
<g>
</g>
<g>
</g>
<g>
</g>
<g>
</g>
<g>
</g>
<g>
</g>
</svg>
