<?xml version="1.0" encoding="iso-8859-1"?>
<!-- Generator: Adobe Illustrator 19.0.0, SVG Export Plug-In . SVG Version: 6.00 Build 0)  -->
<svg xmlns="http://www.w3.org/2000/svg" xmlns:xlink="http://www.w3.org/1999/xlink" version="1.1" id="Capa_1" x="0px" y="0px" viewBox="0 0 313.344 313.344" style="enable-background:new 0 0 313.344 313.344;" xml:space="preserve">
<g>
	<g>
		<path d="M156.672,0C70.144,0,0,70.144,0,156.672s70.144,156.672,156.672,156.672S313.344,243.2,313.344,156.672    C313.344,70.656,243.2,0,156.672,0z M147.968,10.752c1.024-0.512,2.048-0.512,3.072-0.512v69.12H99.328    C118.272,35.84,147.968,11.264,147.968,10.752z M131.584,12.288c-11.776,11.776-30.208,34.816-43.52,67.072H32.256    C53.76,44.544,89.6,19.968,131.584,12.288z M26.624,89.6H84.48c-6.144,17.92-10.752,38.912-11.264,61.952H10.24    C10.752,129.536,16.896,108.544,26.624,89.6z M10.24,161.792h62.464c0.512,21.504,5.12,40.96,11.776,58.368H24.576    C15.872,202.752,10.752,182.784,10.24,161.792z M30.208,230.4h58.368c15.36,34.816,38.912,59.392,52.736,72.192    C93.696,297.472,52.736,269.824,30.208,230.4z M151.552,297.472c-12.288-10.752-35.328-33.792-51.2-67.072h51.2V297.472z     M151.552,220.16H95.744c-7.168-16.896-11.776-36.352-12.8-58.368h68.608V220.16z M151.552,151.552H82.944    c0.512-23.04,5.632-44.032,12.288-61.952h56.32V151.552z M303.104,151.552h-62.976c-0.512-23.04-5.12-44.032-11.264-61.952h57.856    C296.448,108.544,302.08,129.536,303.104,151.552z M281.088,79.36H225.28c-13.312-32.256-32.256-55.296-44.032-67.072    C223.232,19.456,259.072,44.544,281.088,79.36z M161.792,10.24c1.024,0.512,1.536,0.512,3.072,0.512    c0.512,0.512,29.696,25.088,49.152,68.608h-52.224V10.24z M161.792,89.6h56.32c6.656,17.92,11.776,38.912,12.288,61.952h-68.608    V89.6z M161.792,161.792H230.4c-0.512,21.504-5.632,40.96-12.8,58.368h-55.808V161.792z M161.792,297.472V230.4h51.2    C197.12,263.68,173.568,287.232,161.792,297.472z M171.52,302.592c14.336-12.8,37.376-37.376,52.736-72.192h58.368    C260.096,269.824,219.136,297.472,171.52,302.592z M288.768,220.16h-59.904c6.656-17.408,10.752-36.864,11.776-58.368h62.464    C302.08,182.784,296.96,202.752,288.768,220.16z"/>
	</g>
</g>
<g>
</g>
<g>
</g>
<g>
</g>
<g>
</g>
<g>
</g>
<g>
</g>
<g>
</g>
<g>
</g>
<g>
</g>
<g>
</g>
<g>
</g>
<g>
</g>
<g>
</g>
<g>
</g>
<g>
</g>
</svg>
