<?xml version="1.0" encoding="iso-8859-1"?>
<!-- Generator: Adobe Illustrator 19.0.0, SVG Export Plug-In . SVG Version: 6.00 Build 0)  -->
<svg xmlns="http://www.w3.org/2000/svg" xmlns:xlink="http://www.w3.org/1999/xlink" version="1.1" id="Capa_1" x="0px" y="0px" viewBox="0 0 343.04 343.04" style="enable-background:new 0 0 343.04 343.04;" xml:space="preserve">
<g>
	<g>
		<path d="M171.52,0C76.8,0,0,76.8,0,171.52s77.312,171.52,171.52,171.52c94.72,0,171.52-76.8,171.52-171.52S266.24,0,171.52,0z     M171.52,332.8c-89.088,0-161.28-72.192-161.28-161.28S82.944,10.752,171.52,10.752c89.088,0,161.28,72.192,161.28,161.28    S260.608,332.8,171.52,332.8z"/>
	</g>
</g>
<g>
	<g>
		<path d="M274.944,165.888h-94.208c-1.024-1.536-2.048-3.072-3.584-3.584v-84.48c0-3.072-2.048-5.12-5.12-5.12    c-3.072,0-5.12,2.048-5.12,5.12v84.48c-3.072,1.536-5.12,5.12-5.12,8.704c-0.512,5.632,4.096,10.24,9.728,10.24    c3.584,0,7.168-2.048,8.704-5.12h94.72c3.072,0,5.12-2.048,5.12-5.12C280.064,167.936,278.016,165.888,274.944,165.888z"/>
	</g>
</g>
<g>
	<g>
		<path d="M171.52,25.088c-3.072,0-5.12,2.048-5.12,5.12v13.824c0,3.072,2.56,5.12,5.12,5.12c3.072,0,5.12-2.048,5.12-5.12V30.208    C176.64,27.136,174.592,25.088,171.52,25.088z"/>
	</g>
</g>
<g>
	<g>
		<path d="M310.784,166.912H296.96c-3.072,0-5.12,2.048-5.12,5.12c0,2.56,2.56,5.12,5.12,5.12h13.824c3.072,0,5.12-2.56,5.12-5.12    S313.344,166.912,310.784,166.912z"/>
	</g>
</g>
<g>
	<g>
		<path d="M175.616,298.496c0-3.072-2.56-5.632-5.12-5.12c-3.072,0-5.12,2.56-5.12,5.12l0.512,13.824c0,2.56,2.56,5.12,5.12,5.12    c3.072,0,5.12-2.56,5.12-5.12L175.616,298.496z"/>
	</g>
</g>
<g>
	<g>
		<path d="M42.496,167.936l-13.824,0.512c-3.072,0-5.12,2.56-5.12,5.12s2.56,5.12,5.12,5.12l13.824-0.512    c3.072,0.512,5.12-2.048,5.12-5.12C47.616,169.984,45.056,167.936,42.496,167.936z"/>
	</g>
</g>
<g>
	<g>
		<path d="M242.176,44.544c-2.56-1.536-5.632-0.512-7.168,2.048l-6.656,11.776c-1.536,2.56-0.512,5.632,2.048,7.168    c1.024,0.512,1.536,0.512,2.56,0.512c2.048,0,3.584-1.024,4.608-2.56l6.656-11.776C245.76,49.152,244.736,46.08,242.176,44.544z"/>
	</g>
</g>
<g>
	<g>
		<path d="M294.912,235.52l-12.288-6.656c-2.56-1.536-5.632-0.512-7.168,2.048s-0.512,5.632,2.048,7.168l11.776,6.656    c1.024,0.512,1.536,0.512,2.56,0.512c2.048,0,3.584-1.024,4.608-2.56C297.984,239.616,297.472,236.544,294.912,235.52z"/>
	</g>
</g>
<g>
	<g>
		<path d="M111.104,278.528c-2.56-1.536-5.632-0.512-7.168,2.048l-6.144,12.288c-1.536,2.56-0.512,5.632,2.048,7.168    c0.512,0.512,1.536,0.512,2.56,0.512c2.048,0,3.584-1.024,4.608-2.56l6.144-12.288    C114.688,283.136,113.664,280.064,111.104,278.528z"/>
	</g>
</g>
<g>
	<g>
		<path d="M59.904,107.008l-12.8-6.144c-2.56-1.536-5.632-0.512-6.656,2.048c-1.536,2.56-0.512,5.632,2.048,6.656l12.288,6.144    c0.512,0.512,1.536,0.512,2.56,0.512c2.048,0,3.584-1.024,4.608-2.56C63.488,111.104,62.464,108.032,59.904,107.008z"/>
	</g>
</g>
<g>
	<g>
		<path d="M295.424,99.328c-1.536-2.56-4.608-3.072-7.168-1.536l-11.776,7.168c-2.56,1.536-3.072,4.608-1.536,7.168    c1.536,1.024,3.072,2.048,4.608,2.048c1.024,0,2.048,0,2.56-0.512l11.776-7.168C296.448,104.96,296.96,101.888,295.424,99.328z"/>
	</g>
</g>
<g>
	<g>
		<path d="M246.272,291.84l-7.168-12.288c-1.536-2.56-4.608-3.072-7.168-1.536s-3.072,4.608-1.536,7.168l7.168,11.776    c1.024,1.536,2.56,2.56,4.608,2.56c1.024,0,2.048,0,2.56-0.512C247.296,297.472,247.808,294.4,246.272,291.84z"/>
	</g>
</g>
<g>
	<g>
		<path d="M65.536,236.544c-1.536-2.56-4.608-3.072-7.168-1.536l-11.776,7.168c-2.048,2.048-2.56,5.12-1.024,7.168    c1.024,1.536,2.56,2.56,4.096,2.56c1.024,0,2.048-0.512,2.56-1.024L64,243.712C66.56,242.176,67.072,239.104,65.536,236.544z"/>
	</g>
</g>
<g>
	<g>
		<path d="M105.984,62.464L98.304,51.2c-1.536-2.56-4.608-3.072-7.168-1.536s-3.072,4.608-1.536,7.168l8.192,11.264    c1.024,1.536,2.56,2.56,4.096,2.56c1.024,0,2.048-0.512,2.56-1.024C107.008,68.096,107.52,65.024,105.984,62.464z"/>
	</g>
</g>
<g>
</g>
<g>
</g>
<g>
</g>
<g>
</g>
<g>
</g>
<g>
</g>
<g>
</g>
<g>
</g>
<g>
</g>
<g>
</g>
<g>
</g>
<g>
</g>
<g>
</g>
<g>
</g>
<g>
</g>
</svg>
