<?xml version="1.0" encoding="iso-8859-1"?>
<!-- Generator: Adobe Illustrator 19.0.0, SVG Export Plug-In . SVG Version: 6.00 Build 0)  -->
<svg xmlns="http://www.w3.org/2000/svg" xmlns:xlink="http://www.w3.org/1999/xlink" version="1.1" id="Capa_1" x="0px" y="0px" viewBox="0 0 373.888 373.888" style="enable-background:new 0 0 373.888 373.888;" xml:space="preserve">
<g>
	<g>
		<path d="M326.272,48.16c-38.4-37.888-99.328-37.888-137.216,0c-18.432,18.432-28.16,42.496-28.16,68.608    c0,25.6,10.24,50.176,28.16,68.608c18.944,18.944,43.52,28.16,68.608,28.16c24.576,0,49.664-9.216,68.608-28.16    c18.432-18.432,28.16-42.496,28.16-68.608C354.432,91.168,344.192,66.592,326.272,48.16z M318.592,177.696    c-33.792,33.792-88.576,33.792-122.368,0c-16.384-16.384-25.6-37.888-25.6-61.44c0-23.04,9.216-45.056,25.6-61.44    c16.896-16.896,38.912-25.088,61.44-25.088c22.016,0,44.544,8.192,61.44,25.088c16.384,16.384,25.6,37.888,25.6,61.44    C344.192,139.808,334.976,161.312,318.592,177.696z"/>
	</g>
</g>
<g>
	<g>
		<path d="M339.584,33.824c-45.056-45.056-119.296-45.056-164.864,0.512c-22.016,22.016-34.304,51.2-34.304,82.432    c0,23.552,7.168,46.592,19.968,65.536l-14.336,14.336c-5.632-1.536-11.776,0-16.384,4.096L8.832,322.08    c-11.776,11.776-11.776,31.232,0,43.008c6.144,6.144,13.824,8.704,21.504,8.704s15.36-3.072,21.504-8.704l121.344-121.344    c4.608-4.608,5.632-10.752,4.096-16.384l14.336-14.336c19.456,13.312,42.496,19.968,65.536,19.968    c29.696,0,59.904-11.264,82.432-34.304c22.016-22.016,34.304-51.2,34.304-82.432S361.6,55.84,339.584,33.824z M166.016,236.576    L44.672,357.92c-7.68,7.68-20.48,7.68-28.672,0c-7.68-7.68-7.68-20.48,0-28.672l121.344-121.344c2.56-2.56,6.656-2.56,9.728,0    l18.944,18.944C168.576,229.408,168.576,234.016,166.016,236.576z M172.16,218.656l-16.384-16.384l11.264-11.264    c2.56,3.072,5.12,5.632,7.68,8.704c2.56,2.56,5.632,5.632,8.704,7.68L172.16,218.656z M332.928,192.032    c-41.472,41.472-109.056,41.472-150.528,0c-19.968-19.968-31.232-47.104-31.232-75.264c0-28.16,11.264-55.296,31.232-75.264    c20.992-20.992,48.128-31.232,75.264-31.232s54.784,10.24,75.264,31.232c19.968,19.968,31.232,47.104,31.232,75.264    C364.16,144.928,352.896,172.064,332.928,192.032z"/>
	</g>
</g>
<g>
	<g>
		<path d="M219.776,108.576c-3.072,0-5.12,2.048-5.12,5.12v43.52c0,3.072,2.048,5.12,5.12,5.12c3.072,0,5.12-2.048,5.12-5.12v-43.52    C224.896,111.136,222.848,108.576,219.776,108.576z"/>
	</g>
</g>
<g>
	<g>
		<path d="M204.928,93.728c-3.072,0-5.12,2.048-5.12,5.12v30.208c0,3.072,2.048,5.12,5.12,5.12c3.072,0,5.12-2.048,5.12-5.12V98.848    C210.048,96.288,208,93.728,204.928,93.728z"/>
	</g>
</g>
<g>
</g>
<g>
</g>
<g>
</g>
<g>
</g>
<g>
</g>
<g>
</g>
<g>
</g>
<g>
</g>
<g>
</g>
<g>
</g>
<g>
</g>
<g>
</g>
<g>
</g>
<g>
</g>
<g>
</g>
</svg>
