<?xml version="1.0" encoding="iso-8859-1"?>
<!-- Generator: Adobe Illustrator 19.0.0, SVG Export Plug-In . SVG Version: 6.00 Build 0)  -->
<svg xmlns="http://www.w3.org/2000/svg" xmlns:xlink="http://www.w3.org/1999/xlink" version="1.1" id="Capa_1" x="0px" y="0px" viewBox="0 0 354.816 354.816" style="enable-background:new 0 0 354.816 354.816;" xml:space="preserve">
<g>
	<g>
		<path d="M307.2,180.224V31.232c9.216-1.024,15.36-7.68,15.36-15.872C322.56,6.656,315.392,0,307.2,0H47.616    c-8.704,0-15.36,7.168-15.36,15.36c0,8.192,6.144,14.336,13.824,15.36v148.992c-7.68,1.024-13.824,7.68-13.824,15.36    c0,8.704,7.168,15.36,15.36,15.36h97.792v6.656c0,5.632,1.536,10.752,4.096,15.36l-35.328,99.328    c-1.024,2.56,0.512,5.632,3.072,6.656c0.512,0,1.024,0.512,1.536,0.512c2.048,0,4.096-1.536,4.608-3.584l33.28-93.184    c4.096,3.584,9.216,5.632,14.848,6.656v100.864c0,3.072,2.048,5.12,5.12,5.12c3.072,0,5.12-2.048,5.12-5.12V248.832    c6.144-1.024,11.776-3.584,16.384-7.68l33.792,94.208c0.512,2.048,2.56,3.584,4.608,3.584c0.512,0,1.024,0,1.536-0.512    c2.56-1.024,4.096-4.096,3.072-6.656L204.8,230.912c2.048-4.096,3.072-8.704,3.072-13.312v-6.656h97.792    c8.704,0,15.36-7.168,15.36-15.36S314.88,181.248,307.2,180.224z M42.496,15.36c0-3.072,2.56-5.12,5.12-5.12h259.072    c3.072,0,5.12,2.56,5.12,5.12c0,3.072-2.56,5.12-5.12,5.12h-3.072H51.2h-3.072C45.056,20.992,42.496,18.432,42.496,15.36z     M298.496,31.232v148.48H56.32V31.232H298.496z M177.152,239.104c-11.776,0-21.504-9.728-21.504-21.504v-6.656h43.008v6.656h0    C198.656,229.376,188.928,239.104,177.152,239.104z M307.2,200.192H47.616c-3.072,0-5.12-2.56-5.12-5.12    c0-3.072,2.56-5.12,5.12-5.12h3.072h252.416h3.072c3.584,0,6.144,2.56,6.144,5.12C312.32,198.144,309.76,200.192,307.2,200.192z"/>
	</g>
</g>
<g>
</g>
<g>
</g>
<g>
</g>
<g>
</g>
<g>
</g>
<g>
</g>
<g>
</g>
<g>
</g>
<g>
</g>
<g>
</g>
<g>
</g>
<g>
</g>
<g>
</g>
<g>
</g>
<g>
</g>
</svg>
