<svg xmlns="http://www.w3.org/2000/svg" viewBox="0 0 322.048 322.048"><path fill="#aaaaaa" d="M316.928 311.552H289.28V166.656c0-3.072-2.048-5.12-5.12-5.12h-102.4c-3.072 0-5.12 2.048-5.12 5.12V311.04h-13.824V5.376c-.512-3.072-3.072-5.12-5.632-5.12H35.84c-3.072 0-5.12 2.048-5.12 5.12v306.176H5.12c-3.072 0-5.12 2.048-5.12 5.12s2.048 5.12 5.12 5.12h311.808c3.072 0 5.12-2.048 5.12-5.12s-2.048-5.12-5.12-5.12zm-164.864 0H40.96V10.496h111.104v301.056zm126.464-.512h-92.16V171.776h92.16V311.04z"/><path fill="#aaaaaa" d="M71.168 34.048c-3.072 0-5.12 2.048-5.12 5.12v24.064c0 3.072 2.048 5.12 5.12 5.12s5.12-2.048 5.12-5.12V39.168c0-3.072-2.048-5.12-5.12-5.12zM71.168 88.832c-3.072 0-5.12 2.048-5.12 5.12v24.064c0 3.072 2.048 5.12 5.12 5.12s5.12-2.048 5.12-5.12V93.952c0-2.56-2.048-5.12-5.12-5.12zM71.168 144.128c-3.072 0-5.12 2.048-5.12 5.12v24.064c0 3.072 2.048 5.12 5.12 5.12s5.12-2.048 5.12-5.12v-24.064c0-3.072-2.048-5.12-5.12-5.12zM71.168 198.912c-3.072 0-5.12 2.048-5.12 5.12v24.064c0 3.072 2.048 5.12 5.12 5.12s5.12-2.048 5.12-5.12v-24.064c0-2.56-2.048-5.12-5.12-5.12zM71.168 253.696c-3.072 0-5.12 2.048-5.12 5.12v24.064c0 3.072 2.048 5.12 5.12 5.12s5.12-2.048 5.12-5.12v-24.064c0-2.56-2.048-5.12-5.12-5.12zM95.744 34.048c-3.072 0-5.12 2.048-5.12 5.12v24.064c0 3.072 2.048 5.12 5.12 5.12s5.12-2.048 5.12-5.12V39.168c0-3.072-2.56-5.12-5.12-5.12zM95.744 88.832c-3.072 0-5.12 2.048-5.12 5.12v24.064c0 3.072 2.048 5.12 5.12 5.12s5.12-2.048 5.12-5.12V93.952c0-2.56-2.56-5.12-5.12-5.12zM95.744 144.128c-3.072 0-5.12 2.048-5.12 5.12v24.064c0 3.072 2.048 5.12 5.12 5.12s5.12-2.048 5.12-5.12v-24.064c0-3.072-2.56-5.12-5.12-5.12zM95.744 198.912c-3.072 0-5.12 2.048-5.12 5.12v24.064c0 3.072 2.048 5.12 5.12 5.12s5.12-2.048 5.12-5.12v-24.064c0-2.56-2.56-5.12-5.12-5.12zM95.744 253.696c-3.072 0-5.12 2.048-5.12 5.12v24.064c0 3.072 2.048 5.12 5.12 5.12s5.12-2.048 5.12-5.12v-24.064c0-2.56-2.56-5.12-5.12-5.12zM119.808 34.048c-3.072 0-5.12 2.048-5.12 5.12v24.064c0 3.072 2.048 5.12 5.12 5.12s5.12-2.048 5.12-5.12V39.168c0-3.072-2.048-5.12-5.12-5.12zM119.808 88.832c-3.072 0-5.12 2.048-5.12 5.12v24.064c0 3.072 2.048 5.12 5.12 5.12s5.12-2.048 5.12-5.12V93.952c0-2.56-2.048-5.12-5.12-5.12zM208.384 198.912c-3.072 0-5.12 2.048-5.12 5.12v24.064c0 3.072 2.048 5.12 5.12 5.12s5.12-2.048 5.12-5.12v-24.064c0-2.56-2.56-5.12-5.12-5.12zM208.384 253.696c-3.072 0-5.12 2.048-5.12 5.12v24.064c0 3.072 2.048 5.12 5.12 5.12s5.12-2.048 5.12-5.12v-24.064c0-2.56-2.56-5.12-5.12-5.12zM232.448 198.912c-3.072 0-5.12 2.048-5.12 5.12v24.064c0 3.072 2.048 5.12 5.12 5.12s5.12-2.048 5.12-5.12v-24.064c0-2.56-2.048-5.12-5.12-5.12zM232.448 253.696c-3.072 0-5.12 2.048-5.12 5.12v24.064c0 3.072 2.048 5.12 5.12 5.12s5.12-2.048 5.12-5.12v-24.064c0-2.56-2.048-5.12-5.12-5.12zM257.024 198.912c-3.072 0-5.12 2.048-5.12 5.12v24.064c0 3.072 2.048 5.12 5.12 5.12s5.12-2.048 5.12-5.12v-24.064c0-2.56-2.56-5.12-5.12-5.12zM257.024 253.696c-3.072 0-5.12 2.048-5.12 5.12v24.064c0 3.072 2.048 5.12 5.12 5.12s5.12-2.048 5.12-5.12v-24.064c0-2.56-2.56-5.12-5.12-5.12zM119.808 144.128c-3.072 0-5.12 2.048-5.12 5.12v24.064c0 3.072 2.048 5.12 5.12 5.12s5.12-2.048 5.12-5.12v-24.064c0-3.072-2.048-5.12-5.12-5.12zM119.808 198.912c-3.072 0-5.12 2.048-5.12 5.12v24.064c0 3.072 2.048 5.12 5.12 5.12s5.12-2.048 5.12-5.12v-24.064c0-2.56-2.048-5.12-5.12-5.12zM119.808 253.696c-3.072 0-5.12 2.048-5.12 5.12v24.064c0 3.072 2.048 5.12 5.12 5.12s5.12-2.048 5.12-5.12v-24.064c0-2.56-2.048-5.12-5.12-5.12z"/></svg>