<?xml version="1.0" encoding="iso-8859-1"?>
<!-- Generator: Adobe Illustrator 19.0.0, SVG Export Plug-In . SVG Version: 6.00 Build 0)  -->
<svg xmlns="http://www.w3.org/2000/svg" xmlns:xlink="http://www.w3.org/1999/xlink" version="1.1" id="Capa_1" x="0px" y="0px" viewBox="0 0 369.029 369.029" style="enable-background:new 0 0 369.029 369.029;" xml:space="preserve">
<g>
	<g>
		<path d="M235.909,79.237c-12.8,0-25.088,2.048-37.376,5.632c-5.12-10.752-11.776-21.504-20.992-30.208    c-39.936-40.96-105.984-41.472-146.432-1.536c-40.96,39.936-41.472,105.984-1.536,146.432    c20.992,19.968,47.104,30.72,74.752,30.72h0.512c2.048,13.824,5.632,27.136,11.776,39.936c0.512,0.512,0.512,1.024,1.024,1.536    c0,0.512,0,1.024,0,1.536c1.024,3.584,1.024,6.656-1.024,9.728c-6.656,11.264-30.208,18.432-38.4,19.968    c-2.048,0.512-3.072,1.536-4.096,3.584c-0.512,1.536,0,3.584,1.024,5.12c13.312,14.336,29.184,18.432,44.544,18.432    c17.92,0,33.792-6.144,40.448-8.704c22.528,15.36,48.64,24.064,75.776,24.064c73.216,0,133.12-59.904,133.12-133.12    S309.125,79.237,235.909,79.237z M37.253,192.389C1.925,155.525,2.437,96.133,38.789,59.781    c17.408-17.408,40.96-26.624,65.536-26.624c0.512,0,0.512,0,1.024,0c25.088,0,48.128,10.24,66.048,28.16    c9.216,9.216,15.872,19.456,19.968,30.72c0,0,0,0,0,0.512c0,0,0,0,0,0.512c12.8,32.768,6.656,71.68-19.968,98.816    c-0.512,0.512-1.024,1.536-2.048,2.048c-3.584,4.096-5.12,9.216-4.096,14.848c1.536,10.752,11.264,20.48,18.432,26.624    c-24.064,5.12-43.008-17.408-44.032-18.432c-1.536-2.048-4.096-2.048-6.144-1.024c-0.512,0-0.512,0-1.024,0    C98.693,226.693,61.829,217.989,37.253,192.389z M236.421,335.237c-26.112,0-51.2-8.192-72.192-23.552c0,0-0.512,0-0.512-0.512    c-0.512,0-0.512-0.512-1.024-0.512s-0.512,0-1.024,0c-0.512,0-0.512,0-1.024,0c-0.512,0-0.512,0-1.024,0.512h-0.512    c-0.512,0-40.96,19.968-68.608,0c11.264-3.584,28.672-10.24,35.84-22.528c3.072-5.632,4.096-11.776,2.048-17.92    c-0.512-1.024-1.024-1.536-1.536-2.048c0-1.024,0-1.536-0.512-2.56c-5.632-11.264-9.216-23.552-10.752-35.84    c6.656-0.512,13.312-2.048,19.456-4.096c8.192,8.704,24.064,19.968,42.496,19.968c6.144,0,13.312-1.536,19.968-4.608    c1.536-1.024,2.56-2.56,3.072-4.096c0-2.048-0.512-3.584-2.048-4.608c-5.632-3.584-20.48-15.36-22.016-25.6    c-0.512-2.56,0-4.608,1.536-6.656c0.512-0.512,1.024-1.024,2.048-2.048c27.648-28.672,35.328-69.12,23.552-104.448    c10.24-3.072,21.504-4.608,32.768-4.608c67.584,0,122.88,55.296,122.88,122.88C359.301,279.941,304.005,335.237,236.421,335.237z"/>
	</g>
</g>
<g>
</g>
<g>
</g>
<g>
</g>
<g>
</g>
<g>
</g>
<g>
</g>
<g>
</g>
<g>
</g>
<g>
</g>
<g>
</g>
<g>
</g>
<g>
</g>
<g>
</g>
<g>
</g>
<g>
</g>
</svg>
