<svg xmlns="http://www.w3.org/2000/svg" viewBox="0 0 384.533 384.533">
	<path fill="#aaaaaa" d="M213.013 139.797c-3.584-11.776-13.824-11.776-22.528-12.288l-5.632-18.944c6.144-1.024 8.192 2.048 11.264 1.024 2.048-.512 2.56-2.56 2.048-4.096-1.024-3.584-8.192-4.608-15.36-3.072l-1.024-4.096c-.512-1.024-1.024-1.536-2.56-1.024-1.024.512-1.536 1.536-1.024 2.56l1.024 4.096c-9.728 4.096-13.312 13.824-11.264 20.48 4.096 10.752 13.312 10.752 22.016 11.264l7.168 23.552c-7.68 2.56-12.288-1.536-15.36-.512-2.048.512-2.56 2.56-2.048 4.608 1.024 3.584 10.24 5.12 18.944 2.56l1.024 4.096c.512 1.024 1.024 1.536 2.56 1.024 1.024-.512 1.536-1.536 1.024-2.56l-1.536-4.608c10.752-4.608 14.336-14.848 11.264-24.064zm-36.864-17.92c-1.024-5.12 1.024-9.216 5.632-11.264l5.12 17.408c-5.12-.512-9.216-1.536-10.752-6.144zm24.064 35.84l-6.656-22.016c5.632.512 10.752 1.536 12.288 7.168 2.048 6.144 0 11.776-5.632 14.848zM155.157 335.381c-2.048-8.192-9.216-8.192-15.36-8.704l-4.096-13.312c4.096-.512 5.632 1.536 7.68.512 1.536-.512 2.048-1.536 1.536-3.072-1.024-2.56-5.632-3.072-10.752-2.048l-1.024-2.56c0-.512-1.024-1.024-1.536-1.024-1.024 0-1.024 1.024-1.024 1.536l1.024 2.56c-7.168 3.072-9.216 9.728-8.192 14.336 2.048 7.68 8.704 7.68 14.848 7.68l5.12 16.384c-5.12 1.536-8.704-1.024-10.752-.512-1.536.512-1.536 2.048-1.536 3.072 1.024 2.56 7.168 3.584 13.312 1.536l1.536 4.096c0 .512 1.024 1.024 1.536 1.024 1.024 0 1.024-1.024 1.024-1.536l-1.024-3.072c7.168-3.072 9.728-10.24 7.68-16.896zm-25.6-13.312c-1.024-3.072.512-6.144 4.096-7.68l3.584 12.288c-3.584-.512-6.656-1.024-7.68-4.608zm17.408 25.6l-5.12-15.36c4.096 0 7.168 1.024 8.704 5.12s0 8.192-3.584 10.24zM270.357 254.485l1.536-2.56c.512-.512 0-1.536-.512-1.536-.512-.512-1.536 0-1.536.512l-1.536 2.56c-7.168-3.072-13.312 0-15.872 4.608-3.584 7.168 1.024 11.776 5.12 15.872l-8.192 15.36c-5.12-2.56-5.12-6.656-7.168-7.68-1.024-.512-2.56 0-3.072 1.536-1.024 2.56 2.56 7.68 8.192 10.752l-1.536 2.56c-.512.512 0 1.536.512 1.536.512.512 1.536 0 1.536-.512l1.536-3.072c7.68 3.072 14.336-.512 17.408-6.144 4.096-7.68-1.024-12.8-5.12-16.896l6.656-12.288c3.584 2.56 3.072 5.12 5.12 6.144 1.024.512 2.56 0 3.072-1.024 1.536-3.072-1.536-7.168-6.144-9.728zm-8.704 31.232c-2.048 4.096-5.632 5.632-9.728 4.608l7.68-14.336c2.048 3.072 4.096 6.144 2.048 9.728zm-1.536-16.896c-2.56-2.56-4.096-5.632-2.56-8.704 1.536-3.072 5.12-4.096 8.192-2.56l-5.632 11.264zM330.773 306.709l.512-13.824c4.096.512 5.12 3.072 7.168 3.072 1.536 0 2.56-1.024 2.56-2.56 0-2.56-4.608-5.12-9.216-5.632v-3.072c0-.512-.512-1.536-1.024-1.536-1.024 0-1.536.512-1.536 1.024v3.072c-7.68.512-12.288 6.144-12.288 11.264 0 7.68 5.632 10.24 11.264 12.288l-1.024 17.92c-5.632 0-7.68-3.584-10.24-3.584-1.536 0-2.048 1.024-2.048 2.56 0 2.56 5.632 5.632 12.288 6.144v3.072c0 .512.512 1.536 1.024 1.536 1.024 0 1.536-.512 1.536-1.024v-3.072c8.192-.512 12.8-6.656 12.8-13.312.512-9.728-6.144-12.288-11.776-14.336zm-3.072-1.024c-3.584-1.536-6.144-3.072-5.632-6.656 0-3.584 2.56-5.632 6.144-6.144l-.512 12.8zm8.704 14.336c0 4.096-2.56 7.68-6.656 8.192l.512-15.872c3.584 1.536 6.656 3.584 6.144 7.68z"/><path fill="#aaaaaa" d="M377.877 157.717L332.309 9.749c-1.024-3.584-3.584-6.656-7.168-8.192-3.584-1.536-7.168-2.048-10.752-1.024L13.845 92.693c-3.584 1.024-6.656 3.584-8.192 7.168-1.536 3.584-2.048 7.168-1.024 10.752l45.568 147.968c1.024 3.584 3.584 6.656 7.168 8.192 2.048 1.024 4.608 1.536 6.656 1.536 1.536 0 2.56 0 4.096-.512l300.544-92.16c3.584-1.024 6.656-3.584 8.192-7.168 1.536-3.584 2.048-7.168 1.024-10.752zm-12.288 8.192l-300.544 92.16c-1.024.512-2.048 0-3.072-.512s-1.536-1.536-2.048-2.56L14.357 107.029c0-.512 0-1.536.512-2.56s1.536-1.536 2.56-2.048l300.544-92.16h1.024c.512 0 1.536 0 2.048.512 1.024.512 1.536 1.536 2.048 2.56l45.056 147.456c.512 2.048-.512 4.608-2.56 5.12z"/><path fill="#aaaaaa" d="M321.557 50.197c-1.024-2.56-3.584-4.096-6.144-3.584-8.192 2.56-16.896-2.048-18.944-10.24-1.024-2.56-3.584-4.096-6.144-3.584L53.781 104.981c-2.56 1.024-4.096 3.584-3.584 6.144 1.024 4.096 1.024 8.192-1.024 11.776-2.048 3.584-5.12 6.144-9.216 7.68-1.536.512-2.56 1.536-3.072 2.56s-.512 2.56-.512 4.096l25.6 81.92c1.024 2.56 3.584 4.096 6.144 3.584 4.096-1.024 8.192-1.024 11.776 1.024 3.584 2.048 6.144 5.12 7.68 9.216.512 1.536 1.536 2.56 2.56 3.072.512.512 1.536.512 2.56.512h1.536l235.008-72.192c2.56-1.024 4.096-3.584 3.584-6.144-1.024-4.096-1.024-8.192 1.024-11.776 2.048-3.584 5.12-6.144 9.216-7.68 1.536-.512 2.56-1.536 3.072-2.56s.512-2.56.512-4.096l-25.088-81.92zm.512 105.472l-226.816 69.12c-2.56-4.608-6.144-8.192-10.752-10.24-3.584-2.048-7.68-3.072-11.776-3.072h-2.56l-22.528-73.216c4.608-2.048 8.192-5.632 10.752-10.24 2.56-4.608 3.584-9.728 3.072-14.336l226.304-69.632c5.12 9.216 14.848 14.336 25.088 13.312l22.528 73.216c-9.216 5.12-14.336 14.848-13.312 25.088zM139.797 277.013c-29.696 0-53.76 24.064-53.76 53.76 0 29.696 24.064 53.76 53.76 53.76 29.696 0 53.76-24.064 53.76-53.76 0-29.696-24.064-53.76-53.76-53.76zm0 97.28c-24.064 0-43.52-19.456-43.52-43.52 0-24.064 19.456-43.52 43.52-43.52 24.064 0 43.52 19.456 43.52 43.52s-19.456 43.52-43.52 43.52zM326.677 255.509c-5.632 0-10.752 1.024-16.384 2.56-6.656-22.016-27.136-37.888-51.2-37.888-29.696 0-53.76 24.064-53.76 53.76 0 29.696 24.064 53.76 53.76 53.76 5.632 0 11.264-1.024 16.384-2.56 7.168 22.016 27.648 37.888 51.2 37.888 29.696 0 53.76-24.064 53.76-53.76 0-29.696-24.064-53.76-53.76-53.76zm-67.584 61.952c-24.576 0-44.032-19.456-44.032-43.52s19.456-43.52 43.52-43.52c19.968 0 36.864 13.312 41.984 31.744l1.024 3.584c.512 3.072 1.024 5.632 1.024 8.704V279.061c-2.56 21.504-20.992 38.4-43.52 38.4zm67.584 35.328c-19.456 0-36.352-12.8-41.472-30.72 15.36-8.704 25.6-24.064 27.648-41.984v-3.072-2.048-1.024c0-2.048 0-4.096-.512-6.144 4.608-1.536 9.216-2.56 14.336-2.56 24.064 0 43.52 19.456 43.52 43.52 0 24.576-19.456 44.032-43.52 44.032z"/></svg>