<?xml version="1.0" encoding="iso-8859-1"?>
<!-- Generator: Adobe Illustrator 19.0.0, SVG Export Plug-In . SVG Version: 6.00 Build 0)  -->
<svg xmlns="http://www.w3.org/2000/svg" xmlns:xlink="http://www.w3.org/1999/xlink" version="1.1" id="Capa_1" x="0px" y="0px" viewBox="0 0 337.081 337.081" style="enable-background:new 0 0 337.081 337.081;" xml:space="preserve">
<g>
	<g>
		<path d="M336.569,118.492c0.512-2.56-0.512-4.608-2.048-6.144l-44.032-27.136V65.244c0-3.072-2.048-5.12-5.12-5.12h-37.376    c-0.512-0.512-0.512-1.024-1.024-1.024l-75.264-46.08c-1.536-1.024-3.584-1.024-5.12,0L90.297,59.1    c-0.512,0-0.512,0.512-1.024,1.024H55.481c-3.072,0-5.12,2.048-5.12,5.12v18.432L2.233,112.348    c-2.048,1.024-2.56,3.584-2.048,5.632c0,0,0,0,0,0.512c0,0.512,0,0.512,0,1.024v200.192c0,3.072,2.048,5.12,5.12,5.12h326.656    c3.072,0,5.12-2.048,5.12-5.12V119.516C336.569,119.004,336.569,119.004,336.569,118.492z M289.977,97.5l32.768,19.968    l-32.768,14.336V97.5z M168.633,23.26l60.416,36.864H107.705L168.633,23.26z M59.577,70.364h220.16V135.9l-112.128,47.616    l-108.032-46.08V70.364z M49.849,95.964v37.376l-36.352-15.36L49.849,95.964z M326.329,314.588H9.913V127.196l155.648,67.072    c0.512,0.512,1.536,0.512,2.048,0.512c0.512,0,1.536,0,2.048-0.512l156.672-67.072V314.588z"/>
	</g>
</g>
<g>
	<g>
		<path d="M250.041,97.5H92.345c-3.072,0-5.12,2.048-5.12,5.12s2.048,5.12,5.12,5.12h157.696c3.072,0,5.12-2.048,5.12-5.12    C255.161,99.548,253.113,97.5,250.041,97.5z"/>
	</g>
</g>
<g>
	<g>
		<path d="M250.041,124.124H92.345c-3.072,0-5.12,2.048-5.12,5.12c0,3.072,2.048,5.12,5.12,5.12h157.696    c3.072,0,5.12-2.048,5.12-5.12C255.161,126.172,253.113,124.124,250.041,124.124z"/>
	</g>
</g>
<g>
</g>
<g>
</g>
<g>
</g>
<g>
</g>
<g>
</g>
<g>
</g>
<g>
</g>
<g>
</g>
<g>
</g>
<g>
</g>
<g>
</g>
<g>
</g>
<g>
</g>
<g>
</g>
<g>
</g>
</svg>
