<svg xmlns="http://www.w3.org/2000/svg" viewBox="0 0 304.64 304.64"><path fill="#aaaaaa" d="M299.52 63.488h-52.736v-43.52c0-3.072-2.048-5.12-5.12-5.12h-179.2c-3.072 0-5.12 2.048-5.12 5.12v43.52H5.12c-3.072 0-5.12 2.048-5.12 5.12v216.064c0 3.072 2.048 5.12 5.12 5.12h294.4c3.072 0 5.12-2.048 5.12-5.12V68.608c0-3.072-2.048-5.12-5.12-5.12zm-231.936-.512V25.6h168.96V64H67.584v-1.024zm226.304 216.576H10.24V176.128h95.232v24.576c0 3.072 2.048 5.12 5.12 5.12h82.944c3.072 0 5.12-2.048 5.12-5.12v-24.576h95.232v103.424zm-178.176-83.968v-19.456h72.704v19.456h-72.704zM294.4 165.888H10.24v-92.16H294.4v92.16z"/></svg>