<?xml version="1.0" encoding="iso-8859-1"?>
<!-- Generator: Adobe Illustrator 19.0.0, SVG Export Plug-In . SVG Version: 6.00 Build 0)  -->
<svg xmlns="http://www.w3.org/2000/svg" xmlns:xlink="http://www.w3.org/1999/xlink" version="1.1" id="Capa_1" x="0px" y="0px" viewBox="0 0 326.144 326.144" style="enable-background:new 0 0 326.144 326.144;" xml:space="preserve">
<g>
	<g>
		<path d="M293.376,59.904H32.768C14.848,59.904,0,74.752,0,92.672v140.8c0.512,17.92,14.848,32.768,32.768,32.768h260.608    c17.92,0,32.768-14.848,32.768-32.768v-140.8C326.144,74.752,311.296,59.904,293.376,59.904z M315.904,233.472    c0,12.288-9.728,22.528-22.016,22.528H32.768c-12.288,0-22.528-10.24-22.528-22.528V143.36h305.664V233.472z M315.904,133.12    H10.752v-27.136h305.152V133.12z M315.904,96.256H10.752v-3.072c0-12.8,9.728-22.528,22.016-22.528h260.608    c12.288,0,22.528,10.24,22.528,22.528V96.256z"/>
	</g>
</g>
<g>
	<g>
		<path d="M60.928,201.728H46.592c-3.072,0-5.12,2.048-5.12,5.12c0,3.072,2.048,5.12,5.12,5.12h14.336c3.072,0,5.12-2.048,5.12-5.12    C66.048,203.776,63.488,201.728,60.928,201.728z"/>
	</g>
</g>
<g>
	<g>
		<path d="M95.232,201.728H80.896c-3.072,0-5.12,2.048-5.12,5.12c0,3.072,2.048,5.12,5.12,5.12h14.336c3.072,0,5.12-2.048,5.12-5.12    C100.352,203.776,98.304,201.728,95.232,201.728z"/>
	</g>
</g>
<g>
	<g>
		<path d="M130.048,201.728h-14.336c-3.072,0-5.12,2.048-5.12,5.12c0,3.072,2.048,5.12,5.12,5.12h14.336    c3.072,0,5.12-2.048,5.12-5.12C135.168,203.776,132.608,201.728,130.048,201.728z"/>
	</g>
</g>
<g>
	<g>
		<path d="M164.352,201.728h-14.336c-3.072,0-5.12,2.048-5.12,5.12c0,3.072,2.048,5.12,5.12,5.12h14.336    c3.072,0,5.12-2.048,5.12-5.12C169.472,203.776,167.424,201.728,164.352,201.728z"/>
	</g>
</g>
<g>
	<g>
		<path d="M260.608,181.76c-3.584,0-6.656,0.512-9.728,2.048c-3.072-1.536-6.144-2.048-9.728-2.048    c-13.824,0-25.088,11.264-25.088,25.088c0,13.824,11.264,25.088,25.088,25.088c3.584,0,6.656-0.512,9.728-2.048    c3.072,1.536,6.144,2.048,9.728,2.048c13.824,0,25.088-11.264,25.088-25.088C285.184,193.024,274.432,181.76,260.608,181.76z     M240.64,221.184c-8.192,0-14.336-6.656-14.336-14.336c0-8.192,6.144-14.336,14.336-14.336c-3.072,4.096-4.608,9.216-4.608,14.336    S238.08,217.088,240.64,221.184z M250.368,217.6c-2.56-2.56-4.608-6.656-4.608-10.752s2.048-8.192,4.608-10.752    c3.072,2.56,4.608,6.656,4.608,10.752S252.928,215.04,250.368,217.6z M260.608,221.184c3.072-4.096,4.608-9.216,4.608-14.336    s-2.048-10.24-4.608-14.336c7.68,0,14.336,6.656,14.336,14.336S268.8,221.184,260.608,221.184z"/>
	</g>
</g>
<g>
</g>
<g>
</g>
<g>
</g>
<g>
</g>
<g>
</g>
<g>
</g>
<g>
</g>
<g>
</g>
<g>
</g>
<g>
</g>
<g>
</g>
<g>
</g>
<g>
</g>
<g>
</g>
<g>
</g>
</svg>
