<?xml version="1.0" encoding="iso-8859-1"?>
<!-- Generator: Adobe Illustrator 19.0.0, SVG Export Plug-In . SVG Version: 6.00 Build 0)  -->
<svg xmlns="http://www.w3.org/2000/svg" xmlns:xlink="http://www.w3.org/1999/xlink" version="1.1" id="Capa_1" x="0px" y="0px" viewBox="0 0 327.68 327.68" style="enable-background:new 0 0 327.68 327.68;" xml:space="preserve">
<g>
	<g>
		<path d="M321.024,15.104h-58.368c-3.072,0-5.12,2.048-5.12,5.12v166.912l-15.872,12.8v-140.8c0-3.072-2.048-5.12-5.12-5.12H176.64    c-3.072,0-5.12,2.048-5.12,5.12v124.928l-15.872-17.408V12.544c0-3.072-2.048-5.12-5.12-5.12H91.136    c-3.072,0-5.12,2.048-5.12,5.12v143.872l-15.872,12.288V144.64c0-3.072-2.048-5.12-5.12-5.12H5.12c-3.072,0-5.12,2.048-5.12,5.12    v140.8c0,3.072,2.048,5.12,5.12,5.12h59.392c3.072,0,5.12-2.048,5.12-5.12V181.504l15.872-12.288V285.44    c0,3.072,2.048,5.12,5.12,5.12h59.392c3.072,0,5.12-2.048,5.12-5.12V182.016l15.872,17.408v86.016c0,3.072,2.048,5.12,5.12,5.12    h59.392c3.072,0,5.12-2.048,5.12-5.12v-72.192l15.872-12.8v85.504c0,3.072,2.048,5.12,5.12,5.12h59.392    c3.072,0,5.12-2.048,5.12-5.12V20.224C326.144,17.152,324.096,15.104,321.024,15.104z M59.392,176.384l-27.648,21.504    c-2.048,1.536-2.56,5.12-1.024,7.168c1.536,2.048,5.12,2.56,7.168,1.024l21.504-16.384v91.136H10.24V149.76h49.152V176.384z     M145.408,280.32H96.256V161.536l24.064-18.432l25.088,27.648V280.32z M145.408,155.904l-20.992-23.04    c-1.536-2.048-4.608-2.048-6.656-0.512l-21.504,16.384V17.664h49.152V155.904z M181.76,64.256h49.152v143.872l-21.504,17.408    l-27.648-30.208V64.256z M231.424,280.32h-49.152v-69.632l23.552,25.6c1.024,1.024,2.56,1.536,3.584,1.536    s2.048-0.512,3.072-1.024l18.944-15.36V280.32z M316.928,280.32h-49.152v-88.576l29.696-24.064v7.168    c0,3.072,2.048,5.12,5.12,5.12c3.072,0,5.12-2.048,5.12-5.12v-17.92c0-3.072-2.048-5.12-5.12-5.12h-20.48    c-3.072,0-5.12,2.048-5.12,5.12c0,3.072,2.048,5.12,5.12,5.12h6.144l-20.992,16.896v-153.6h0.512h49.152V280.32z"/>
	</g>
</g>
<g>
	<g>
		<path d="M322.56,310.016H5.12c-3.072,0-5.12,2.048-5.12,5.12c0,2.56,2.048,5.12,5.12,5.12h317.44c3.072,0,5.12-2.048,5.12-5.12    C327.68,312.064,325.632,310.016,322.56,310.016z"/>
	</g>
</g>
<g>
</g>
<g>
</g>
<g>
</g>
<g>
</g>
<g>
</g>
<g>
</g>
<g>
</g>
<g>
</g>
<g>
</g>
<g>
</g>
<g>
</g>
<g>
</g>
<g>
</g>
<g>
</g>
<g>
</g>
</svg>
