<?xml version="1.0" encoding="iso-8859-1"?>
<!-- Generator: Adobe Illustrator 19.0.0, SVG Export Plug-In . SVG Version: 6.00 Build 0)  -->
<svg xmlns="http://www.w3.org/2000/svg" xmlns:xlink="http://www.w3.org/1999/xlink" version="1.1" id="Capa_1" x="0px" y="0px" viewBox="0 0 327.68 327.68" style="enable-background:new 0 0 327.68 327.68;" xml:space="preserve">
<g>
	<g>
		<path d="M321.024,111.616h-58.368c-3.072,0-5.12,2.048-5.12,5.12v52.224l-15.872-12.8V12.288c0-3.072-2.048-5.12-5.12-5.12H176.64    c-3.072,0-5.12,2.048-5.12,5.12v157.696l-15.872,17.408V80.896c0-3.072-2.048-5.12-5.12-5.12H90.624    c-3.072,0-5.12,2.048-5.12,5.12v119.296l-15.872-12.288V49.152c0-3.072-2.048-5.12-5.12-5.12H5.12c-3.072,0-5.12,2.048-5.12,5.12    v237.056c0,2.56,2.048,5.12,5.12,5.12h59.392c3.072,0,5.12-2.048,5.12-5.12v-85.504l15.872,12.288v73.216    c0,3.072,2.048,5.12,5.12,5.12h59.392c3.072,0,5.12-2.048,5.12-5.12v-83.456l15.872-17.408v100.864c0,3.072,2.048,5.12,5.12,5.12    h59.392c3.072,0,5.12-2.048,5.12-5.12V169.472l15.872,12.8v103.936c0,3.072,2.048,5.12,5.12,5.12h59.392    c3.072,0,5.12-2.048,5.12-5.12V116.736C326.144,113.664,324.096,111.616,321.024,111.616z M59.392,180.224L37.888,163.84    c-2.048-1.536-5.632-1.536-7.168,1.024c-1.536,2.048-1.536,5.632,1.024,7.168l27.648,21.504V281.6H10.24V54.272h49.152V180.224z     M95.744,86.016h49.152v112.64l-25.088,27.648l-24.064-18.432V86.016z M145.408,281.088H96.256v-60.416l21.504,16.384    c1.024,0.512,2.048,1.024,3.072,1.024c1.536,0,2.56-0.512,3.584-1.536l20.992-23.04V281.088z M181.248,17.408h0.512h49.152v130.56    l-18.944-15.36c-2.048-1.536-5.12-1.536-7.168,0.512l-23.552,25.6V17.408z M231.424,281.088L231.424,281.088h-49.152V174.08    l27.648-30.208l21.504,17.408V281.088z M316.928,281.088h-49.152v-90.624l20.48,16.896h-5.12c-3.072,0-5.12,2.048-5.12,5.12    c0,3.072,2.048,5.12,5.12,5.12h17.92c3.072,0,5.12-2.048,5.12-5.12V192c0-3.072-2.048-5.12-5.12-5.12    c-3.072,0-5.12,2.048-5.12,5.12v8.704l-28.16-23.552v-55.296h49.152V281.088z"/>
	</g>
</g>
<g>
	<g>
		<path d="M322.56,310.272H5.12c-3.072,0-5.12,2.048-5.12,5.12c0,3.072,2.048,5.12,5.12,5.12h317.44c3.072,0,5.12-2.048,5.12-5.12    C327.68,312.32,325.632,310.272,322.56,310.272z"/>
	</g>
</g>
<g>
</g>
<g>
</g>
<g>
</g>
<g>
</g>
<g>
</g>
<g>
</g>
<g>
</g>
<g>
</g>
<g>
</g>
<g>
</g>
<g>
</g>
<g>
</g>
<g>
</g>
<g>
</g>
<g>
</g>
</svg>
