<?xml version="1.0" encoding="iso-8859-1"?>
<!-- Generator: Adobe Illustrator 19.0.0, SVG Export Plug-In . SVG Version: 6.00 Build 0)  -->
<svg xmlns="http://www.w3.org/2000/svg" xmlns:xlink="http://www.w3.org/1999/xlink" version="1.1" id="Capa_1" x="0px" y="0px" viewBox="0 0 412.773 412.773" style="enable-background:new 0 0 412.773 412.773;" xml:space="preserve">
<g>
	<g>
		<path d="M388.762,279.653l-115.2-276.48c-1.024-2.56-4.096-4.096-6.656-2.56L60.058,86.629c-2.56,1.024-4.096,4.096-2.56,6.656    l4.096,10.24l-26.624,5.12c-1.536,0.512-2.56,1.024-3.072,2.048c-0.512,1.024-1.024,2.56-1.024,4.096l2.56,13.824l-5.632,1.024    c-2.56,0.512-4.608,3.072-4.096,6.144c0.512,2.56,2.56,4.096,5.12,4.096c0.512,0,0.512,0,1.024,0l5.632-1.024l2.56,12.8    l-5.632,1.024c-2.56,0.512-4.608,3.072-4.096,6.144c0.512,2.56,2.56,4.096,5.12,4.096c0.512,0,0.512,0,1.024,0l5.632-1.024    l2.56,12.8l-5.632,1.024c-2.56,0.512-4.608,3.072-4.096,6.144c0.512,2.56,2.56,4.096,5.12,4.096c0.512,0,0.512,0,1.024,0    l5.632-1.024l2.56,12.8l-5.632,1.024c-2.56,0.512-4.608,3.072-4.096,6.144c0.512,2.56,2.56,4.096,5.12,4.096    c0.512,0,0.512,0,1.024,0l5.632-1.024l2.56,12.8l-5.632,1.024c-2.56,0.512-4.608,3.072-4.096,6.144    c0.512,2.56,2.56,4.096,5.12,4.096c0.512,0,0.512,0,1.024,0l5.632-1.024l2.56,12.8l-6.144,0.512    c-2.56,0.512-4.608,3.072-4.096,6.144c0.512,2.56,2.56,4.096,5.12,4.096c0.512,0,0.512,0,1.024,0l5.632-1.024l2.56,12.8    l-5.632,1.024c-2.56,0.512-4.608,3.072-4.096,6.144c0.512,2.56,2.56,4.096,5.12,4.096c0.512,0,0.512,0,1.024,0l5.632-1.024    l2.56,12.8l-5.632,1.024c-2.56,0.512-4.608,3.072-4.096,6.144c0.512,2.56,2.56,4.096,5.12,4.096c0.512,0,0.512,0,1.024,0    l5.632-1.024l2.56,12.8l-5.632,1.024c-2.56,0.512-4.608,3.072-4.096,6.144c0.512,2.56,2.56,4.096,5.12,4.096    c0.512,0,0.512,0,1.024,0l5.632-1.024l2.56,12.8l-5.632,1.024c-2.56,0.512-4.608,3.072-4.096,6.144    c0.512,2.56,2.56,4.096,5.12,4.096c0.512,0,0.512,0,1.024,0l5.632-1.024l2.56,12.8l-5.632,1.024    c-2.56,0.512-4.608,3.072-4.096,6.144c0.512,2.56,2.56,4.096,5.12,4.096c0.512,0,0.512,0,1.024,0l5.632-1.024l2.56,12.8    l-5.632,1.024c-2.56,0.512-4.608,3.072-4.096,6.144c0.512,2.56,2.56,4.096,5.12,4.096c0.512,0,0.512,0,1.024,0l5.632-1.024    l3.072,16.896c0.512,2.56,2.56,4.096,5.12,4.096c0.512,0,0.512,0,1.024,0l219.648-43.008c1.536-0.512,2.56-1.024,3.072-2.048    c0.512-1.024,1.024-2.56,1.024-4.096l-8.704-45.568l76.288-31.744c1.024-0.512,2.048-1.536,2.56-2.56    C389.274,282.725,389.274,281.189,388.762,279.653z M96.922,400.485l-2.56-11.776l5.632-1.024c2.56-0.512,4.608-3.072,4.096-6.144    c-0.512-2.56-3.072-4.608-6.144-4.096l-5.632,1.024l-2.048-12.8l5.632-1.024c2.56-0.512,4.608-3.072,4.096-6.144    c-0.512-2.56-3.072-4.608-6.144-4.096l-5.632,1.024l-2.56-12.8l5.632-1.024c2.56-0.512,4.608-3.072,4.096-6.144    c-0.512-2.56-3.072-4.608-6.144-4.096l-5.632,1.024l-2.56-12.8l5.632-1.024c2.56-0.512,4.608-3.072,4.096-6.144    c-0.512-2.56-3.072-4.608-6.144-4.096l-5.632,1.024l-2.56-12.8l5.632-1.024c2.56-0.512,4.608-3.072,4.096-6.144    c-0.512-2.56-3.072-4.608-6.144-4.096l-5.632,1.024l-2.56-12.8l5.632-1.024c2.56-0.512,4.608-3.072,4.096-6.144    c-0.512-2.56-3.072-4.608-6.144-4.096l-5.632,1.024l-2.56-12.8l5.632-1.024c2.56-0.512,4.608-3.072,4.096-6.144    c-0.512-2.56-3.072-4.608-6.144-4.096l-5.632,1.024l-2.56-12.8l5.632-1.024c2.56-0.512,4.608-3.072,4.096-6.144    c-0.512-2.56-3.072-4.608-6.144-4.096l-5.632,1.024l-2.56-12.8l5.632-1.024c2.56-0.512,4.608-3.072,4.096-6.144    c-0.512-2.56-3.072-4.608-6.144-4.096l-5.632,1.024l-2.56-12.8h7.168c2.56-0.512,4.608-3.072,4.096-6.144    c-0.512-2.56-3.072-4.608-6.144-4.096l-5.632,1.024l-2.56-12.288l5.632-1.024c2.56-0.512,4.608-3.072,4.096-6.144    c-0.512-2.56-3.072-4.608-6.144-4.096l-5.632,1.024l-2.56-12.8l5.632-1.024c2.56-0.512,4.608-3.072,4.096-6.144    c-0.512-2.56-3.072-4.608-6.144-4.096l-5.632,1.024l-1.536-8.704l166.4-32.256l43.008-8.192l54.784,282.112L96.922,400.485z     M306.842,307.301l-46.08-237.056c-0.512-1.536-1.024-2.56-2.048-3.072c-1.024-0.512-2.56-1.024-4.096-1.024l-48.128,9.216    L71.834,101.477c0-0.512-0.512-1.024-0.512-1.536l-2.56-6.144l197.12-81.92l110.592,266.24L306.842,307.301z"/>
	</g>
</g>
<g>
	<g>
		<path d="M221.85,120.933c-0.512-2.56-3.072-4.608-6.144-4.096L89.242,141.413c-1.536,0.512-2.56,1.024-3.072,2.048    c-0.512,1.024-1.024,2.56-1.024,4.096l16.384,84.992c0.512,2.56,2.56,4.096,5.12,4.096c0.512,0,0.512,0,1.024,0l126.464-24.576    c1.536-0.512,2.56-1.024,3.072-2.048c0.512-1.024,1.024-2.56,1.024-4.096L221.85,120.933z M110.746,225.381l-14.848-74.752    l116.736-22.528l14.848,74.752L110.746,225.381z"/>
	</g>
</g>
<g>
	<g>
		<path d="M244.89,240.229c-0.512-2.56-3.072-4.608-6.144-4.096l-126.464,24.576c-3.072,0.512-4.608,3.072-4.096,6.144    c0.512,2.56,2.56,4.096,5.12,4.096c0.512,0,0.512,0,1.024,0l126.464-24.576C243.354,245.861,245.402,243.301,244.89,240.229z"/>
	</g>
</g>
<g>
	<g>
		<path d="M248.986,263.269c-0.512-2.56-3.072-4.608-6.144-4.096l-126.464,24.576c-2.56,0.512-4.608,3.072-4.096,6.144    c0.512,2.56,2.56,4.096,5.12,4.096c0.512,0,0.512,0,1.024,0l126.464-24.576C247.45,268.901,249.498,266.341,248.986,263.269z"/>
	</g>
</g>
<g>
</g>
<g>
</g>
<g>
</g>
<g>
</g>
<g>
</g>
<g>
</g>
<g>
</g>
<g>
</g>
<g>
</g>
<g>
</g>
<g>
</g>
<g>
</g>
<g>
</g>
<g>
</g>
<g>
</g>
</svg>
