<?xml version="1.0" encoding="iso-8859-1"?>
<!-- Generator: Adobe Illustrator 19.0.0, SVG Export Plug-In . SVG Version: 6.00 Build 0)  -->
<svg xmlns="http://www.w3.org/2000/svg" xmlns:xlink="http://www.w3.org/1999/xlink" version="1.1" id="Capa_1" x="0px" y="0px" viewBox="0 0 382.464 382.464" style="enable-background:new 0 0 382.464 382.464;" xml:space="preserve">
<g>
	<g>
		<circle cx="192" cy="32.768" r="7.68"/>
	</g>
</g>
<g>
	<g>
		<path d="M313.856,45.568h-31.744H263.68c-3.072-10.24-12.8-17.408-25.088-17.408H225.28C222.72,12.288,208.896,0,192,0    s-30.72,12.288-33.28,28.16h-13.312c-12.288,0-22.528,7.68-25.088,17.408H68.608c-3.072,0-5.12,2.048-5.12,5.12v326.656    c0,3.072,2.048,5.12,5.12,5.12h245.248c3.072,0,5.12-2.048,5.12-5.12V50.688C318.976,47.616,316.928,45.568,313.856,45.568z     M129.536,51.2c0-7.168,7.168-13.312,15.872-13.312h17.92c3.072,0,5.12-2.048,5.12-5.12c0-12.8,10.24-23.04,23.04-23.04    c12.8,0,23.04,10.24,23.04,23.04c0,3.072,2.048,5.12,5.12,5.12h17.92c8.704,0,15.872,5.632,15.872,13.312v24.064H129.536V51.2z     M107.008,55.808h12.8v24.576c0,3.072,2.048,5.12,5.12,5.12h134.144c3.072,0,5.12-2.048,5.12-5.12V55.808h12.288l-0.512,236.032    h-41.472c-3.072,0-5.12,2.048-5.12,5.12v41.472H107.008V55.808z M268.8,302.08l-29.184,29.184V302.08H268.8z M308.224,372.224    H73.728V55.808h23.04v288.256c0,3.072,2.048,5.12,5.12,5.12h132.608c0.512,0,1.536,0,2.048-0.512    c0.512-0.512,1.024-0.512,1.536-1.024l46.592-46.592c0.512-0.512,0.512-1.024,1.024-1.536v-0.512c0-0.512,0-1.024,0.512-1.536    c0,0,0,0,0-0.512l0.512-241.152h21.504V372.224z"/>
	</g>
</g>
<g>
</g>
<g>
</g>
<g>
</g>
<g>
</g>
<g>
</g>
<g>
</g>
<g>
</g>
<g>
</g>
<g>
</g>
<g>
</g>
<g>
</g>
<g>
</g>
<g>
</g>
<g>
</g>
<g>
</g>
</svg>
