<?xml version="1.0" encoding="iso-8859-1"?>
<!-- Generator: Adobe Illustrator 19.0.0, SVG Export Plug-In . SVG Version: 6.00 Build 0)  -->
<svg version="1.1" id="Layer_1" xmlns="http://www.w3.org/2000/svg" xmlns:xlink="http://www.w3.org/1999/xlink" x="0px" y="0px"
	 viewBox="0 0 511.999 511.999" style="enable-background:new 0 0 511.999 511.999;" xml:space="preserve">
<circle style="fill:#00A085;" cx="255.996" cy="255.967" r="255.967"/>
<path style="fill:#048C75;" d="M511.97,254.539L376.675,119.243l-59.163,112.708l-29.295-29.524l-6.364,5.962l-88.172-88.172
	l-29.696,6.306l6.822,186.317l-58.189,54.748l144.41,144.41c140.397-0.573,256.716-116.319,254.882-257.404L511.97,254.539z"/>
<rect x="233.699" y="228.279" style="fill:#E6E6E6;" width="44.083" height="56.067"/>
<path style="fill:#FFD630;" d="M231.176,197.496h49.589c4.299,0,7.796,3.497,7.796,7.796v16.052c0,4.299-3.497,7.796-7.796,7.796
	h-49.589c-4.299,0-7.796-3.497-7.796-7.796v-16.052C223.379,200.993,226.876,197.496,231.176,197.496z"/>
<path style="fill:#D6A71C;" d="M232.666,201.682L232.666,201.682c1.204,0,2.236,0.974,2.236,2.236v19.263
	c0,1.204-0.974,2.236-2.236,2.236l0,0c-1.204,0-2.236-0.974-2.236-2.236v-19.263C230.43,202.713,231.406,201.682,232.666,201.682z
	 M279.332,201.682L279.332,201.682c1.204,0,2.236,0.974,2.236,2.236v19.263c0,1.204-0.974,2.236-2.236,2.236l0,0
	c-1.204,0-2.236-0.974-2.236-2.236v-19.263C277.096,202.713,278.071,201.682,279.332,201.682z M269.987,201.682L269.987,201.682
	c1.204,0,2.236,0.974,2.236,2.236v19.263c0,1.204-0.974,2.236-2.236,2.236l0,0c-1.204,0-2.236-0.974-2.236-2.236v-19.263
	C267.752,202.713,268.726,201.682,269.987,201.682z M260.642,201.682L260.642,201.682c1.204,0,2.236,0.974,2.236,2.236v19.263
	c0,1.204-0.974,2.236-2.236,2.236l0,0c-1.204,0-2.236-0.974-2.236-2.236v-19.263C258.407,202.713,259.381,201.682,260.642,201.682z
	 M251.298,201.682L251.298,201.682c1.204,0,2.236,0.974,2.236,2.236v19.263c0,1.204-0.974,2.236-2.236,2.236l0,0
	c-1.204,0-2.236-0.974-2.236-2.236v-19.263C249.062,202.713,250.037,201.682,251.298,201.682z M241.954,201.682L241.954,201.682
	c1.204,0,2.236,0.974,2.236,2.236v19.263c0,1.204-0.974,2.236-2.236,2.236l0,0c-1.204,0-2.236-0.974-2.236-2.236v-19.263
	C239.718,202.713,240.692,201.682,241.954,201.682z"/>
<path style="fill:#CCCCCC;" d="M204.519,235.792h102.503c12.441,0,22.588,5.561,22.588,12.441v42.538
	c0,6.822-10.147,12.441-22.588,12.441H204.519c-12.441,0-22.588-5.561-22.588-12.441v-42.538
	C181.931,241.41,192.078,235.792,204.519,235.792z"/>
<path style="fill:#FFD630;" d="M141.17,117.179h45.691c5.103,0,9.287,4.185,9.287,9.287l0,0c0,5.103-4.185,9.287-9.287,9.287H141.17
	c-5.103,0-9.287-4.185-9.287-9.287l0,0C131.883,121.365,136.068,117.179,141.17,117.179z"/>
<rect x="141.972" y="130.249" style="fill:#E84F4F;" width="44.083" height="35.371"/>
<path style="fill:#D14747;" d="M163.987,130.25h22.072v35.372h-22.072V130.25z"/>
<path style="fill:#F5BE18;" d="M196.148,126.466c0,5.103-4.185,9.287-9.287,9.287H141.17c-5.103,0-9.287-4.185-9.287-9.287l0,0
	h64.322C196.206,126.466,196.148,126.466,196.148,126.466z"/>
<path style="fill:#EDEDED;" d="M145.184,160.347h37.664c8.313,0,14.504,6.879,15.135,15.135l13.873,168.603h-95.739l13.873-168.603
	c0.688-8.313,6.822-15.135,15.135-15.135L145.184,160.347L145.184,160.347z"/>
<path style="fill:#D4D4D4;" d="M163.987,160.347h18.861c8.313,0,14.504,6.879,15.135,15.135l13.873,168.603h-47.869L163.987,160.347
	L163.987,160.347z"/>
<path style="fill:#E84F4F;" d="M120.589,342.652h86.795c7.109,0,12.899,6.249,12.899,13.931l0,0c0,7.682-5.79,13.931-12.899,13.931
	h-86.795c-7.109,0-12.899-6.249-12.899-13.931l0,0C107.69,348.901,113.48,342.652,120.589,342.652z"/>
<path style="fill:#D14747;" d="M220.283,356.582c0,7.682-5.79,13.931-12.899,13.931h-86.795c-7.109,0-12.899-6.249-12.899-13.931
	h112.536H220.283z"/>
<path style="fill:#FFD630;" d="M325.137,117.179h45.691c5.103,0,9.287,4.185,9.287,9.287l0,0c0,5.103-4.185,9.287-9.287,9.287
	h-45.691c-5.103,0-9.287-4.185-9.287-9.287l0,0C315.85,121.365,320.035,117.179,325.137,117.179z"/>
<rect x="325.937" y="130.249" style="fill:#E84F4F;" width="44.083" height="35.371"/>
<path style="fill:#D14747;" d="M348.011,130.25h22.072v35.372h-22.072V130.25z"/>
<path style="fill:#F5BE18;" d="M380.172,126.466c0,5.103-4.185,9.287-9.287,9.287h-45.691c-5.103,0-9.287-4.185-9.287-9.287l0,0
	h64.322C380.23,126.466,380.172,126.466,380.172,126.466z"/>
<path style="fill:#EDEDED;" d="M329.15,160.347h37.664c8.313,0,14.504,6.879,15.135,15.135l13.873,168.603h-95.739l13.873-168.603
	c0.688-8.313,6.822-15.135,15.135-15.135L329.15,160.347L329.15,160.347z"/>
<path style="fill:#D4D4D4;" d="M348.011,160.347h18.861c8.313,0,14.504,6.879,15.135,15.135l13.873,168.603H348.01V160.347H348.011z
	"/>
<path style="fill:#E84F4F;" d="M304.614,342.652h86.795c7.109,0,12.899,6.249,12.899,13.931l0,0c0,7.682-5.79,13.931-12.899,13.931
	h-86.795c-7.109,0-12.899-6.249-12.899-13.931l0,0C291.715,348.901,297.504,342.652,304.614,342.652z"/>
<path style="fill:#D14747;" d="M404.251,356.582c0,7.682-5.79,13.931-12.899,13.931h-86.795c-7.109,0-12.899-6.249-12.899-13.931
	h112.536H404.251z"/>
<path style="fill:#E84F4F;" d="M124.43,242.9h263.08l4.299,52.341H120.131L124.43,242.9z"/>
<g>
	<path style="fill:#D14747;" d="M308.455,242.9h-52.456v52.341h48.155L308.455,242.9z"/>
	<path style="fill:#D14747;" d="M203.543,242.9h-39.557v52.341h43.856L203.543,242.9z"/>
</g>
<g>
</g>
<g>
</g>
<g>
</g>
<g>
</g>
<g>
</g>
<g>
</g>
<g>
</g>
<g>
</g>
<g>
</g>
<g>
</g>
<g>
</g>
<g>
</g>
<g>
</g>
<g>
</g>
<g>
</g>
</svg>
