<svg id="Layer_1" xmlns="http://www.w3.org/2000/svg" viewBox="0 0 350 150"><style>.st0{fill:#231f20}.st1{fill:#ff0322}.st2{fill:#353434}</style><path class="st0" d="M17.8 102.7H23c6.2 0 7.8 1.1 6.2 3l-.5.6c-1.5 1.9-3.8 2.4-7 2.6 2.6.2 5.3 1 3.7 3.1l-.8 1.1c-1.4 1.8-2.7 3.1-11.4 3.1h-6l10.6-13.5zM8.5 116h4.6c6.7 0 8.5-.7 10.2-2.9l.8-1c1.7-2.2-.9-3-6.2-3h-4L8.5 116zm9.8-7.2c5.1 0 7.5-.3 9.2-2.4l.6-.8c1.4-1.7.5-2.6-5.2-2.6h-4l-4.6 5.7h4zM44.4 113.9c-.8 1-1.5 2-1.7 2.4h-1.1c0-.2.5-.9 1-1.4-1.5 1-3.8 1.6-7.3 1.6-3.1 0-6.5-.4-4.9-2.4l6.3-8h1.2l-6.2 7.9c-1.1 1.4-.2 2.2 3.7 2.2 3.7 0 6.6-.7 9-3.6l5.1-6.4h1.2l-6.3 7.7zM56.7 106.1c-.3 4.6-.5 8.3-.7 9.5h.1c2.1-1.5 6.8-4.6 14.1-9.5h1.3l-15.6 10.4c-3.7 2.5-5.2 3.3-9.6 3.3-.6 0-1.7 0-2.4-.1l.4-.3c.6 0 1.5.1 2.1.1 3.3 0 4.6-.7 8.4-3.2l.6-10.2h1.3zM96.8 109.2H86.3L81 116h12.1l-.5.3h-13l10.7-13.5h12.5l-.2.3H91.3l-4.7 5.9h10.5l-.3.2zM112.1 114.4c-.2.3-1.1 1.3-1.2 1.8h-1.1c.1-.2.4-.8 1-1.5-1.8 1.1-4 1.6-7.7 1.6-5.1 0-6-1.3-4.7-2.9 1.7-2.2 6.5-2.6 14.3-3 .5 0 .9-.1 1.4-.1l1.7-2.1c.8-.9 1.1-2.2-4.3-2.2-3.7 0-5.2.8-6.1 1.9l-.3.3h-1.2l.4-.4c.7-.8 2-2.1 7.5-2.1 5.3 0 6.4 1.1 5.3 2.4l-5 6.3zm1.7-3.6c-.4 0-.8 0-1.1.1-7.9.4-11.8.9-13.1 2.7-1.1 1.6-.2 2.5 3.7 2.5 5.1 0 7.5-1.3 9-3.3l1.5-2zM119.6 113.7l-.2.3c-.8 1 .4 2.2 4.7 2.2 3.7 0 5.8-.7 6.6-1.9.9-1.3 0-2.2-3.3-3.1-4-1.2-5.6-2-4.6-3.3.8-1 2.7-1.9 6.9-1.9 5.5 0 6.2 1.2 5.6 2.3l-.2.3H134l.2-.2c.6-.9.2-2-4.6-2-2.9 0-4.8.5-5.6 1.6-.8 1.1.5 1.9 4 2.9 3.3 1 5 2 3.8 3.5-1.1 1.3-3.3 2.1-7.6 2.1-6.4 0-6.8-1.6-6.1-2.5l.2-.3h1.3zM142.4 106.1c-.3 4.6-.5 8.3-.7 9.5h.1c2.1-1.5 6.8-4.6 14.1-9.5h1.3l-15.6 10.4c-3.7 2.5-5.2 3.3-9.6 3.3-.6 0-1.7 0-2.4-.1l.4-.3c.6 0 1.5.1 2.1.1 3.3 0 4.6-.7 8.4-3.2l.6-10.2h1.3zM146.6 118.1c3-1.1 5.3-2.3 6.3-3.5h1.1c-1.1 1.5-4.6 3-6.3 3.5h-1.1zM179.8 102.7h5.2c6.2 0 7.8 1.1 6.2 3l-.5.6c-1.5 1.9-3.8 2.4-7 2.6 2.6.2 5.3 1 3.7 3.1l-.8 1.1c-1.4 1.8-2.7 3.1-11.4 3.1h-6l10.6-13.5zm-9.3 13.3h4.6c6.7 0 8.5-.7 10.2-2.9l.8-1c1.7-2.2-.9-3-6.2-3h-4l-5.4 6.9zm9.8-7.2c5.1 0 7.5-.3 9.2-2.4l.6-.8c1.4-1.7.5-2.6-5.2-2.6h-4l-4.6 5.7h4zM206.4 113.9c-.8 1-1.5 2-1.7 2.4h-1.1c0-.2.5-.9 1-1.4-1.5 1-3.8 1.6-7.3 1.6-3.1 0-6.5-.4-4.9-2.4l6.3-8h1.2l-6.2 7.9c-1.1 1.4-.2 2.2 3.7 2.2 3.7 0 6.6-.7 9-3.6l5.1-6.4h1.2l-6.3 7.7zM220.5 106.1h1.2l-8.1 10.2h-1.2l8.1-10.2zm3.1-3.9h1.2l-1.4 1.7h-1.2l1.4-1.7zM222.1 116.3l11.2-14.1h1.2l-11.2 14.1h-1.2zM256.2 102.2l-9.4 11.8c-.5.7-1.1 1.5-1.6 2.2H244c.1-.2.5-.9.9-1.3-1.3.8-3 1.5-7.1 1.5-4.9 0-6.5-1-4.8-3.2l3.4-4.3c1.7-2.1 4-3 8.7-3 4.5 0 5.7.9 5.7 1.6l4.2-5.3h1.2zm-18.6 6.8l-3.3 4.2c-1.4 1.7-1.4 3 3.6 3 5.6 0 7.4-1.7 9.6-4.5l1.3-1.6c1.9-2.4 1.7-3.8-3.8-3.8-4.1-.1-6 1-7.4 2.7zM281.1 109.2h-10.5l-5.3 6.7h12.1l-.5.3h-13l10.7-13.5H287l-.2.3h-11.3l-4.7 5.9h10.5l-.2.3zM296.3 114.4c-.2.3-1.1 1.3-1.2 1.8H294c.1-.2.4-.8 1-1.5-1.8 1.1-4 1.6-7.7 1.6-5.1 0-6-1.3-4.7-2.9 1.7-2.2 6.5-2.6 14.3-3 .5 0 .9-.1 1.4-.1l1.7-2.1c.8-.9 1.1-2.2-4.3-2.2-3.7 0-5.2.8-6.1 1.9l-.3.3H288l.4-.4c.7-.8 2-2.1 7.5-2.1 5.3 0 6.4 1.1 5.3 2.4l-4.9 6.3zm1.7-3.6c-.4 0-.8 0-1.1.1-7.9.4-11.8.9-13.1 2.7-1.1 1.6-.2 2.5 3.7 2.5 5.1 0 7.5-1.3 9-3.3l1.5-2zM303.8 113.7l-.2.3c-.8 1 .4 2.2 4.7 2.2 3.7 0 5.8-.7 6.6-1.9.9-1.3 0-2.2-3.3-3.1-4-1.2-5.6-2-4.6-3.3.8-1 2.7-1.9 6.9-1.9 5.5 0 6.2 1.2 5.6 2.3l-.2.3h-1.2l.2-.2c.6-.9.2-2-4.6-2-2.9 0-4.8.5-5.6 1.6-.8 1.1.5 1.9 4 2.9 3.3 1 5 2 3.8 3.5-1.1 1.3-3.3 2.1-7.6 2.1-6.4 0-6.8-1.6-6.1-2.5l.2-.3h1.4zM326.6 106.1c-.3 4.6-.5 8.3-.7 9.5h.1c2.1-1.5 6.8-4.6 14.1-9.5h1.3l-15.6 10.4c-3.7 2.5-5.2 3.3-9.6 3.3-.6 0-1.7 0-2.4-.1l.4-.3c.6 0 1.5.1 2.1.1 3.3 0 4.6-.7 8.4-3.2l.6-10.2h1.3z"/><ellipse class="st1" cx="197.4" cy="66.8" rx="11.2" ry="11.3"/><ellipse class="st1" cx="138.4" cy="66.8" rx="11.2" ry="11.3"/><path class="st2" d="M75.1 24.2v10.6H64.5V24.2h10.6zM64.5 93.4V40.2h10.6v53.2H64.5zM96.3 24.2v16h10.6v10.6H96.3v21.3c0 7.1 3.5 10.6 10.6 10.6v10.6c-14.1 0-21.2-7.1-21.2-21.3V50.8h-5.3V40.2h5.3v-16h10.6zM329.4 40.2V77c0 5.5 3.5 8.2 10.6 8.2v8.2c-14.1 0-21.2-5.5-21.2-16.4V40.2h10.6zM138.7 93.4c-7.3 0-13.6-2.6-18.7-7.8-5.2-5.2-7.8-11.5-7.8-18.8 0-7.3 2.6-13.6 7.8-18.8 5.2-5.2 11.4-7.8 18.7-7.8s13.6 2.6 18.7 7.8c5.2 5.2 7.8 11.5 7.8 18.8 0 7.3-2.6 13.6-7.8 18.8-5.2 5.2-11.4 7.8-18.7 7.8zm0-42.6c-4.4 0-8.1 1.6-11.2 4.7-3.1 3.1-4.7 6.9-4.7 11.3s1.6 8.2 4.7 11.3c3.1 3.1 6.9 4.7 11.2 4.7 4.4 0 8.1-1.6 11.2-4.7 3.1-3.1 4.7-6.9 4.7-11.3s-1.6-8.2-4.7-11.3c-3.1-3.1-6.9-4.7-11.2-4.7zm26.4-10.6v53.2h-10.6V40.2h10.6zM181 93.4h-10.6V24.2H181v21.2c4.6-3.5 9.9-5.3 15.9-5.3 7.3 0 13.6 2.6 18.7 7.8 5.2 5.2 7.8 11.5 7.8 18.8 0 7.3-2.6 13.6-7.8 18.8-5.2 5.2-11.4 7.8-18.7 7.8-6 0-11.3-1.8-15.9-5.3v5.4zm4.7-37.9c-3.1 3.1-4.7 6.9-4.7 11.3s1.6 8.2 4.7 11.3c3.1 3.1 6.9 4.7 11.2 4.7 4.4 0 8.1-1.6 11.2-4.7 3.1-3.1 4.7-6.9 4.7-11.3s-1.6-8.2-4.7-11.3c-3.1-3.1-6.9-4.7-11.2-4.7-4.3 0-8.1 1.6-11.2 4.7zM255.2 93.4c-7.3 0-13.6-2.6-18.7-7.8-5.2-5.2-7.8-11.5-7.8-18.8 0-7.3 2.6-13.6 7.8-18.8 5.2-5.2 11.4-7.8 18.7-7.8 7.3 0 13.6 2.6 18.7 7.8 5.2 5.2 7.8 11.5 7.8 18.8 0 7.3-2.6 13.6-7.8 18.8-5.1 5.2-11.4 7.8-18.7 7.8zm0-42.6c-4.4 0-8.1 1.6-11.2 4.7-3.1 3.1-4.7 6.9-4.7 11.3s1.6 8.2 4.7 11.3c3.1 3.1 6.9 4.7 11.2 4.7 4.4 0 8.1-1.6 11.2-4.7 3.1-3.1 4.7-6.9 4.7-11.3s-1.6-8.2-4.7-11.3c-3-3.1-6.8-4.7-11.2-4.7zm26.5-10.6v53.2h-10.6V40.2h10.6zM287 93.4V40.2h10.6v5.3c0-3.5 5.3-5.3 15.9-5.3v10.6c-10.6 0-15.9 3.5-15.9 10.6v31.9H287zM329.4 24.2v10.6h-10.6V24.2h10.6z"/><path class="st2" d="M154.5 93.4s10.5 2 12.1 3.8c0 0-1.5-1.8-1.5-7.3M271.1 93.4s10.4 2 12 3.8c0 0-1.5-1.8-1.5-7.3"/><path class="st1" d="M36.6 90.2L11.3 47.3h21l11.6 21 16.4-32.1v-.1H31.5C15.7 36.1 2.8 49 2.8 64.9s12.9 28.8 28.8 28.8c1.4 0 2.8-.1 4.1-.3h24.7V43.9c-6.2 12.4-23.8 46.3-23.8 46.3z"/><path d="M32.3 47.3h-21l25.3 42.9s17.5-33.9 23.7-46.4v-7.6L43.9 68.4 32.3 47.3z" fill="#fff"/><text transform="matrix(0 -1.0764 1 0 346.63 87.416)" font-size="19.591" font-family="FranklinGothic-Medium" fill="#383737">.com</text></svg>