<?xml version="1.0" encoding="iso-8859-1"?>
<!-- Generator: Adobe Illustrator 19.0.0, SVG Export Plug-In . SVG Version: 6.00 Build 0)  -->
<svg version="1.1" id="Layer_1" xmlns="http://www.w3.org/2000/svg" xmlns:xlink="http://www.w3.org/1999/xlink" x="0px" y="0px"
	 viewBox="0 0 511.996 511.996" style="enable-background:new 0 0 511.996 511.996;" xml:space="preserve">
<circle style="fill:#FFD630;" cx="255.996" cy="255.998" r="255.996"/>
<path style="fill:#F5BE18;" d="M511.371,238.203c0.406,5.881,0.625,11.814,0.625,17.795c0,135.396-105.121,246.229-238.194,255.375
	L106.71,344.281l306.2-204.542l98.464,98.464L511.371,238.203L511.371,238.203z"/>
<path style="fill:#F55F5F;" d="M106.711,138.704l138.277,29.674c5.366,0.918,8.426,1.748,9.736,1.69
	c1.446-0.068,3.629-0.867,12.285-2.615l138.28-28.751c6.269-1.302,11.009,1.672,11.009,8.491V327.97
	c0,6.822-4.952,14.163-11.009,16.314l-138.28,49.099c-1.403,0.496-2.748,0.676-3.984,0.564c-0.316,0.022-0.633,0.036-0.957,0.036
	h-11.624c-0.431,0-0.853-0.022-1.277-0.057c-1.295,0.147-2.705-0.022-4.183-0.543l-138.277-49.099
	c-6.057-2.147-11.013-9.491-11.013-16.314V147.195c0-6.819,4.733-9.836,11.013-8.491H106.711z"/>
<path style="fill:#C94545;" d="M253.879,170.022c0.338,0.04,0.622,0.058,0.849,0.047c1.446-0.068,3.625-0.867,12.285-2.615
	l138.277-28.751c6.269-1.302,11.013,1.672,11.013,8.491v180.776c0,6.822-4.952,14.163-11.013,16.314l-138.277,49.099
	c-1.403,0.496-2.748,0.676-3.984,0.568c-0.316,0.018-0.633,0.032-0.957,0.032h-8.193V170.025L253.879,170.022L253.879,170.022z"/>
<path style="fill:#E84F4F;" d="M409.617,138.135l-134.382-19.356c-5.013-0.722-14.426-1.119-20.587-0.316l-55.594,7.218
	l-4.144,0.539l-86.902,11.289c-6.136,0.794-7.203,2.838-1.733,3.945l137.317,27.941c2.903,0.586,7.078,1.633,11.023,1.68
	c3.492,0.043,6.794-0.805,9.563-1.363l72.792-14.584l9.466-1.744l61.445-11.304c5.927-1.09,6.75-3.226,1.733-3.949v0.003H409.617z"
	/>
<path style="fill:#00CC96;" d="M305.894,123.199l-135.702,31.268l33.973,6.912l125.142-34.806L305.894,123.199z"/>
<path style="fill:#E04C4C;" d="M204.168,161.379c2.075,28.736,5.513,54.285-11.951,75.285l-29.401-14.62L204.168,161.379z"/>
<path style="fill:#19C287;" d="M170.192,154.467c3.564,20.212,6.326,52.005-11.929,61.19l33.951,17.187
	c20.96-15.033,10.862-65.086,11.951-71.466l-33.976-6.912H170.192z"/>
<g>
</g>
<g>
</g>
<g>
</g>
<g>
</g>
<g>
</g>
<g>
</g>
<g>
</g>
<g>
</g>
<g>
</g>
<g>
</g>
<g>
</g>
<g>
</g>
<g>
</g>
<g>
</g>
<g>
</g>
</svg>
